<?xml version="1.0" standalone="no"?>
<!DOCTYPE svg PUBLIC "-//W3C//DTD SVG 20010904//EN"
 "http://www.w3.org/TR/2001/REC-SVG-20010904/DTD/svg10.dtd">
<svg version="1.0" xmlns="http://www.w3.org/2000/svg"
 width="512.000000pt" height="512.000000pt" viewBox="0 0 512.000000 512.000000"
 preserveAspectRatio="xMidYMid meet">

<g transform="translate(0.000000,512.000000) scale(0.100000,-0.100000)"
fill="#000000" stroke="none">
<path d="M1395 5110 c-55 -4 -116 -11 -136 -15 -30 -6 -122 -93 -632 -603
l-596 -597 -12 -60 c-16 -84 -25 -2281 -9 -2449 35 -384 169 -676 434 -942
183 -183 366 -296 601 -369 229 -72 153 -68 1445 -72 833 -3 1198 -1 1280 7
512 52 960 360 1185 815 95 193 133 324 156 532 6 65 9 492 6 1268 -4 1297 0
1221 -72 1450 -73 235 -186 418 -369 601 -261 260 -560 400 -926 433 -131 12
-2193 13 -2355 1z m1590 -910 c374 -101 609 -441 666 -962 15 -136 6 -485 -16
-601 -54 -296 -189 -551 -367 -696 -78 -64 -198 -124 -303 -152 -108 -29 -319
-32 -415 -6 -97 26 -197 79 -278 147 l-72 60 0 -550 0 -550 -370 0 -370 0 -2
1465 c-2 806 -3 1547 -3 1648 l0 182 346 3 347 2 5 -22 c3 -13 9 -62 12 -111
l7 -87 78 74 c90 85 199 145 315 170 100 22 312 15 420 -14z"/>
<path d="M2393 3631 c-73 -25 -127 -63 -162 -115 l-31 -45 0 -473 0 -473 36
-48 c67 -92 170 -137 313 -137 69 0 96 5 137 24 146 68 217 242 230 561 16
388 -61 622 -230 701 -66 31 -212 33 -293 5z"/>
</g>
</svg>
