<?xml version="1.0" encoding="UTF-8"?>
<svg version="1.1" xmlns="http://www.w3.org/2000/svg" width="512" height="512">
<path d="M0 0 C0 0.66 0 1.32 0 2 C1.98 2.495 1.98 2.495 4 3 C4 3.66 4 4.32 4 5 C4.99 5.33 5.98 5.66 7 6 C7 6.66 7 7.32 7 8 C7.66 8 8.32 8 9 8 C9.33 9.32 9.66 10.64 10 12 C10.66 12 11.32 12 12 12 C13.2281641 15.82095497 13.13285092 19.51173039 13.125 23.5 C13.12757813 24.8096875 13.13015625 26.119375 13.1328125 27.46875 C13.02924755 30.22235924 12.83458014 32.40352847 12 35 C11.34 35 10.68 35 10 35 C9.938125 35.7425 9.87625 36.485 9.8125 37.25 C8.75439525 40.83127761 6.96747764 41.84857871 4 44 C3.67 44.66 3.34 45.32 3 46 C0.4375 46.625 0.4375 46.625 -2 47 C-2 47.66 -2 48.32 -2 49 C-3.32 49 -4.64 49 -6 49 C-6 66.16 -6 83.32 -6 101 C13.47 101 32.94 101 53 101 C52.67 93.41 52.34 85.82 52 78 C47.18577669 74.17840005 45.27226105 72.86875015 40 71 C40 70.34 40 69.68 40 69 C39.34 69 38.68 69 38 69 C37.67 67.02 37.34 65.04 37 63 C36.34 63 35.68 63 35 63 C33.84390768 59.53172305 33.86727602 56.7784416 33.875 53.125 C33.87242187 51.91070312 33.86984375 50.69640625 33.8671875 49.4453125 C33.98115702 46.48880905 34.31296899 43.86808185 35 41 C35.66 41 36.32 41 37 41 C37.33 39.68 37.66 38.36 38 37 C38.66 37 39.32 37 40 37 C40.185625 36.2575 40.37125 35.515 40.5625 34.75 C42.76245665 30.54138727 46.39579096 28.86061844 50.8203125 27.3984375 C53.73578224 26.86550217 56.53762918 26.86820557 59.5 26.875 C60.6240625 26.87242188 61.748125 26.86984375 62.90625 26.8671875 C65.4720699 26.97733633 67.56266427 27.24729338 70 28 C70 28.66 70 29.32 70 30 C70.78375 30.144375 71.5675 30.28875 72.375 30.4375 C75 31 75 31 77 32 C77 32.66 77 33.32 77 34 C77.99 34.33 78.98 34.66 80 35 C80 35.99 80 36.98 80 38 C80.66 38 81.32 38 82 38 C82.33 39.98 82.66 41.96 83 44 C83.66 44 84.32 44 85 44 C85.80625667 62.45431923 85.80625667 62.45431923 78.5625 70.8125 C72.48571429 76 72.48571429 76 68 76 C68 76.66 68 77.32 68 78 C67.34 78 66.68 78 66 78 C66 85.59 66 93.18 66 101 C70.95 101 75.9 101 81 101 C81 101.66 81 102.32 81 103 C81.94875 102.9175 82.8975 102.835 83.875 102.75 C89.00795078 102.70784024 93.39864495 104.92614984 98 107 C98 107.66 98 108.32 98 109 C99.32 109.33 100.64 109.66 102 110 C102 110.66 102 111.32 102 112 C102.61875 112.28875 103.2375 112.5775 103.875 112.875 C106 114 106 114 108 116 C108 116.99 108 117.98 108 119 C108.66 119 109.32 119 110 119 C113.7811405 124.44484232 114.12605926 128.44491837 114 135 C114.66 135 115.32 135 116 135 C116 139.95 116 144.9 116 150 C123.59 150 131.18 150 139 150 C140.98 146.04 140.98 146.04 143 142 C146.71949667 136.47389066 150.59233857 133.5974282 157 132 C165.76695277 131.06815469 173.35358041 131.35827104 181 136 C181 136.66 181 137.32 181 138 C181.99 138.33 182.98 138.66 184 139 C186.07530387 141.92079805 187 143.37546731 187 147 C187.66 147 188.32 147 189 147 C190.08187107 150.51178784 190.13346699 153.77552566 190.125 157.4375 C190.12757813 158.54996094 190.13015625 159.66242188 190.1328125 160.80859375 C190.01399223 163.66377492 189.65353269 166.22507946 189 169 C188.34 169 187.68 169 187 169 C186.87625 169.598125 186.7525 170.19625 186.625 170.8125 C186 173 186 173 184 176 C183.34 176 182.68 176 182 176 C181.67 176.66 181.34 177.32 181 178 C175.20629933 182.24871383 171.59692303 183.14127735 164.5 183.125 C163.3759375 183.12757813 162.251875 183.13015625 161.09375 183.1328125 C158.5279301 183.02266367 156.43733573 182.75270662 154 182 C154 181.34 154 180.68 154 180 C153.278125 179.9175 152.55625 179.835 151.8125 179.75 C148.38772874 178.83672766 146.52992571 177.45764212 144 175 C144 174.01 144 173.02 144 172 C143.34 172 142.68 172 142 172 C141.67 170.02 141.34 168.04 141 166 C140.34 166 139.68 166 139 166 C139 165.34 139 164.68 139 164 C131.41 164.33 123.82 164.66 116 165 C116 183.81 116 202.62 116 222 C133.16 222 150.32 222 168 222 C168.66 220.35 169.32 218.7 170 217 C172.4907614 212.79147212 174.9101176 209.72658827 179 207 C179.99 207 180.98 207 182 207 C182 206.34 182 205.68 182 205 C185.65947553 203.85013986 189.11946653 203.86685052 192.9375 203.875 C194.74541016 203.87113281 194.74541016 203.87113281 196.58984375 203.8671875 C199.53222592 203.98178199 202.14489223 204.31737461 205 205 C205 205.66 205 206.32 205 207 C206.32 207.33 207.64 207.66 209 208 C209 208.66 209 209.32 209 210 C209.99 210.33 210.98 210.66 212 211 C212 211.66 212 212.32 212 213 C212.99 213.33 213.98 213.66 215 214 C215 214.99 215 215.98 215 217 C215.66 217 216.32 217 217 217 C219.96132177 225.32871749 219.96132177 233.67128251 217 242 C216.34 242 215.68 242 215 242 C214.67 243.32 214.34 244.64 214 246 C213.34 246 212.68 246 212 246 C211.67 246.99 211.34 247.98 211 249 C210.34 249 209.68 249 209 249 C209 249.66 209 250.32 209 251 C207.68 251.33 206.36 251.66 205 252 C205 252.66 205 253.32 205 254 C201.17904503 255.2281641 197.48826961 255.13285092 193.5 255.125 C192.1903125 255.12757813 190.880625 255.13015625 189.53125 255.1328125 C186.77764076 255.02924755 184.59647153 254.83458014 182 254 C182 253.34 182 252.68 182 252 C181.25105469 251.91105469 180.50210937 251.82210937 179.73046875 251.73046875 C176.49833595 250.86579231 175.45371898 249.83865722 173.3125 247.3125 C172.73113281 246.64863281 172.14976562 245.98476563 171.55078125 245.30078125 C170 243 170 243 168 237 C150.84 237 133.68 237 116 237 C116 256.14 116 275.28 116 295 C123.59 295 131.18 295 139 295 C139 294.34 139 293.68 139 293 C139.66 293 140.32 293 141 293 C141.33 291.02 141.66 289.04 142 287 C142.66 287 143.32 287 144 287 C144.04125 286.4225 144.0825 285.845 144.125 285.25 C145.46262649 281.81038902 147.85957625 280.7586373 151 279 C151.99 279 152.98 279 154 279 C154 278.34 154 277.68 154 277 C160.50167028 275.03842551 168.89450104 274.71584433 175.1875 277.4375 C176.115625 277.953125 177.04375 278.46875 178 279 C178.66 279.33 179.32 279.66 180 280 C180 280.66 180 281.32 180 282 C180.78375 282.268125 181.5675 282.53625 182.375 282.8125 C185 284 185 284 187 287 C187 287.99 187 288.98 187 290 C187.66 290 188.32 290 189 290 C191.24872375 299.72618726 191.15697314 309.29760783 186 318 C185.34 318 184.68 318 184 318 C183.67 318.99 183.34 319.98 183 321 C182.34 321 181.68 321 181 321 C181 321.66 181 322.32 181 323 C178.09399739 324.25664978 176.20395416 325 173 325 C173 325.66 173 326.32 173 327 C154.70371194 327.8081796 154.70371194 327.8081796 148 323 C145.5625 320.3125 145.5625 320.3125 144 318 C143.34 317.67 142.68 317.34 142 317 C141.01 314.36 140.02 311.72 139 309 C131.41 309 123.82 309 116 309 C116 313.95 116 318.9 116 324 C115.34 324 114.68 324 114 324 C114.0928125 325.485 114.0928125 325.485 114.1875 327 C114.1875 331.52627617 112.90496742 334.90784777 111 339 C110.01 339.33 109.02 339.66 108 340 C107.64587656 341.32796291 107.31478446 342.66216607 107 344 C105.5625 345.75 105.5625 345.75 104 347 C103.34 347 102.68 347 102 347 C102 347.66 102 348.32 102 349 C100.68 349.33 99.36 349.66 98 350 C98 350.66 98 351.32 98 352 C96.35 352.33 94.7 352.66 93 353 C93 353.66 93 354.32 93 355 C89.32589215 356.17571451 85.83070817 356.07366746 82 356 C82 356.66 82 357.32 82 358 C76.72 358 71.44 358 66 358 C65.92487417 361.73525618 65.91285519 365.45269138 65.9375 369.1875 C65.90978516 370.24259766 65.88207031 371.29769531 65.85351562 372.38476562 C65.90258268 375.49561704 66.04393154 378.03508493 67 381 C69.73254405 383.45162516 72.63788328 384.62181493 76 386 C80.35828107 389.58347555 83.53262375 393.52339903 85 399 C85.46267743 404.32416272 85.23291126 409.66892012 85 415 C84.34 415 83.68 415 83 415 C82.67 416.98 82.34 418.96 82 421 C81.34 421 80.68 421 80 421 C79.67 422.32 79.34 423.64 79 425 C78.34 425 77.68 425 77 425 C77 425.66 77 426.32 77 427 C68.83081965 431.87008828 62.61422191 432.68003033 53 432 C50.31407031 431.28683936 48.4639372 430.36302909 46 429 C45.29875 428.731875 44.5975 428.46375 43.875 428.1875 C40.86450854 426.28085541 39.11090763 423.87317983 37 421 C37 420.01 37 419.02 37 418 C36.34 418 35.68 418 35 418 C33.76308349 414.16163211 33.8671671 410.44402655 33.875 406.4375 C33.87113281 405.76525391 33.86726563 405.09300781 33.86328125 404.40039062 C33.86938927 401.32500248 34.02008771 398.93973687 35 396 C35.66 396 36.32 396 37 396 C37.103125 395.2575 37.20625 394.515 37.3125 393.75 C38.07955008 390.68179969 38.85286035 389.30481297 41 387 C42.86747043 386.37294614 44.74341657 385.77084051 46.625 385.1875 C48.39875 383.805625 50.1725 382.42375 52 381 C52.33 373.41 52.66 365.82 53 358 C33.53 358 14.06 358 -6 358 C-6 375.16 -6 392.32 -6 410 C-5.01 410 -4.02 410 -3 410 C-3 410.66 -3 411.32 -3 412 C-2.0925 412.061875 -1.185 412.12375 -0.25 412.1875 C3.80191401 413.2004785 4.67184762 414.6281931 7 418 C7.5775 418.53625 8.155 419.0725 8.75 419.625 C10 421 10 421 10 424 C10.66 424 11.32 424 12 424 C13.2281641 427.82095497 13.13285092 431.51173039 13.125 435.5 C13.12757813 436.8096875 13.13015625 438.119375 13.1328125 439.46875 C13.02924755 442.22235924 12.83458014 444.40352847 12 447 C11.34 447 10.68 447 10 447 C9.67 448.32 9.34 449.64 9 451 C8.34 451 7.68 451 7 451 C6.67 451.99 6.34 452.98 6 454 C5.34 454 4.68 454 4 454 C4 454.66 4 455.32 4 456 C2.68 456.33 1.36 456.66 0 457 C0 457.66 0 458.32 0 459 C-8.32871749 461.96132177 -16.67128251 461.96132177 -25 459 C-25 458.34 -25 457.68 -25 457 C-26.32 456.67 -27.64 456.34 -29 456 C-29 455.34 -29 454.68 -29 454 C-29.99 453.67 -30.98 453.34 -32 453 C-32 452.34 -32 451.68 -32 451 C-32.99 450.67 -33.98 450.34 -35 450 C-35 449.01 -35 448.02 -35 447 C-35.66 447 -36.32 447 -37 447 C-38.2281641 443.17904503 -38.13285092 439.48826961 -38.125 435.5 C-38.12757813 434.1903125 -38.13015625 432.880625 -38.1328125 431.53125 C-38.02924755 428.77764076 -37.83458014 426.59647153 -37 424 C-36.34 424 -35.68 424 -35 424 C-34.938125 423.2575 -34.87625 422.515 -34.8125 421.75 C-33.75439525 418.16872239 -31.96747764 417.15142129 -29 415 C-28.67 414.34 -28.34 413.68 -28 413 C-25.00912499 411.62581418 -22.21015915 410.80253979 -19 410 C-19 392.84 -19 375.68 -19 358 C-38.47 358 -57.94 358 -78 358 C-77.67 365.59 -77.34 373.18 -77 381 C-71.84674832 385.55903559 -71.84674832 385.55903559 -67.8828125 386.7890625 C-64.37911075 388.26080714 -63.51021269 389.56769843 -62 393 C-62 393.99 -62 394.98 -62 396 C-61.34 396 -60.68 396 -60 396 C-58.84390768 399.46827695 -58.86727602 402.2215584 -58.875 405.875 C-58.87242187 407.08929688 -58.86984375 408.30359375 -58.8671875 409.5546875 C-58.98115702 412.51119095 -59.31296899 415.13191815 -60 418 C-60.66 418 -61.32 418 -62 418 C-62.33 419.32 -62.66 420.64 -63 422 C-63.66 422 -64.32 422 -65 422 C-65.185625 422.7425 -65.37125 423.485 -65.5625 424.25 C-67.76245665 428.45861273 -71.39579096 430.13938156 -75.8203125 431.6015625 C-78.73578224 432.13449783 -81.53762918 432.13179443 -84.5 432.125 C-85.6240625 432.12757813 -86.748125 432.13015625 -87.90625 432.1328125 C-90.4720699 432.02266367 -92.56266427 431.75270662 -95 431 C-95 430.34 -95 429.68 -95 429 C-95.78375 428.855625 -96.5675 428.71125 -97.375 428.5625 C-100 428 -100 428 -102 427 C-102 426.34 -102 425.68 -102 425 C-102.61875 424.7525 -103.2375 424.505 -103.875 424.25 C-106.41530728 422.7557016 -107.02864183 421.75218149 -108 419 C-108 417.68 -108 416.36 -108 415 C-108.66 415 -109.32 415 -110 415 C-110.46430393 404.37259893 -110.76966755 396.85987728 -103.8125 388.3125 C-101 386 -101 386 -98.79394531 385.09570312 C-96.12327486 383.98229074 -94.15989523 382.93784743 -92 381 C-90.73023757 377.06227179 -90.82959529 373.29540713 -90.9375 369.1875 C-90.93041016 368.11306641 -90.92332031 367.03863281 -90.91601562 365.93164062 C-90.9042645 363.28763832 -90.94683239 360.6434938 -91 358 C-96.28 358 -101.56 358 -107 358 C-107 357.34 -107 356.68 -107 356 C-108.0725 356.020625 -109.145 356.04125 -110.25 356.0625 C-113.14790424 356.0142016 -115.28612141 355.86844115 -118 355 C-118 354.34 -118 353.68 -118 353 C-119.65 352.67 -121.3 352.34 -123 352 C-123 351.34 -123 350.68 -123 350 C-124.32 349.67 -125.64 349.34 -127 349 C-127 348.34 -127 347.68 -127 347 C-127.61875 346.71125 -128.2375 346.4225 -128.875 346.125 C-131 345 -131 345 -133 343 C-133 342.01 -133 341.02 -133 340 C-133.99 339.67 -134.98 339.34 -136 339 C-138.45790037 333.72006588 -139.36134972 329.78159553 -139 324 C-139.66 324 -140.32 324 -141 324 C-141 319.05 -141 314.1 -141 309 C-148.59 309 -156.18 309 -164 309 C-165.32 311.64 -166.64 314.28 -168 317 C-171.70255318 322.50093615 -175.5801514 325.49046803 -182 327 C-187.32879873 327.44011345 -192.66544638 327.23563672 -198 327 C-198 326.34 -198 325.68 -198 325 C-198.763125 324.855625 -199.52625 324.71125 -200.3125 324.5625 C-203 324 -203 324 -206 323 C-206 322.34 -206 321.68 -206 321 C-206.99 320.67 -207.98 320.34 -209 320 C-209 319.34 -209 318.68 -209 318 C-209.66 318 -210.32 318 -211 318 C-216.15697314 309.29760783 -216.24872375 299.72618726 -214 290 C-213.34 290 -212.68 290 -212 290 C-211.9175 289.4225 -211.835 288.845 -211.75 288.25 C-210.78202213 285.3460664 -209.31305716 283.96259396 -207 282 C-206.34 282 -205.68 282 -205 282 C-205 281.34 -205 280.68 -205 280 C-199.80028665 276.38908795 -195.75032301 275.8606644 -189.5 275.875 C-188.3759375 275.87242187 -187.251875 275.86984375 -186.09375 275.8671875 C-183.5279301 275.97733633 -181.43733573 276.24729338 -179 277 C-179 277.66 -179 278.32 -179 279 C-178.278125 279.061875 -177.55625 279.12375 -176.8125 279.1875 C-173.11600926 280.2553751 -171.46861132 282.10819816 -169 285 C-169 285.66 -169 286.32 -169 287 C-168.34 287 -167.68 287 -167 287 C-166.67 288.98 -166.34 290.96 -166 293 C-165.34 293 -164.68 293 -164 293 C-164 293.66 -164 294.32 -164 295 C-156.41 295 -148.82 295 -141 295 C-141 275.86 -141 256.72 -141 237 C-158.16 237 -175.32 237 -193 237 C-194.05772111 239.64430277 -195.09938293 242.29814878 -196 245 C-197.63260714 246.37482707 -199.30225062 247.70647667 -201 249 C-201.53625 249.5775 -202.0725 250.155 -202.625 250.75 C-204 252 -204 252 -207 252 C-207 252.66 -207 253.32 -207 254 C-210.82095497 255.2281641 -214.51173039 255.13285092 -218.5 255.125 C-219.8096875 255.12757813 -221.119375 255.13015625 -222.46875 255.1328125 C-225.22235924 255.02924755 -227.40352847 254.83458014 -230 254 C-230 253.34 -230 252.68 -230 252 C-231.32 251.67 -232.64 251.34 -234 251 C-234 250.34 -234 249.68 -234 249 C-234.99 248.67 -235.98 248.34 -237 248 C-237 247.34 -237 246.68 -237 246 C-237.99 245.67 -238.98 245.34 -240 245 C-240 244.01 -240 243.02 -240 242 C-240.66 242 -241.32 242 -242 242 C-244.96132177 233.67128251 -244.96132177 225.32871749 -242 217 C-241.34 217 -240.68 217 -240 217 C-239.505 215.02 -239.505 215.02 -239 213 C-238.34 213 -237.68 213 -237 213 C-236.67 212.01 -236.34 211.02 -236 210 C-235.34 210 -234.68 210 -234 210 C-234 209.34 -234 208.68 -234 208 C-232.35 207.67 -230.7 207.34 -229 207 C-229 206.34 -229 205.68 -229 205 C-225.3226718 203.84164162 -221.83678577 203.86687122 -218 203.875 C-216.783125 203.87242187 -215.56625 203.86984375 -214.3125 203.8671875 C-211.65249989 203.97383845 -209.51771029 204.20692126 -207 205 C-207 205.66 -207 206.32 -207 207 C-206.25105469 207.07734375 -205.50210938 207.1546875 -204.73046875 207.234375 C-201.31526791 208.19199927 -200.39439118 209.42424208 -198.3125 212.25 C-197.44044922 213.40242188 -197.44044922 213.40242188 -196.55078125 214.578125 C-195 217 -195 217 -193 222 C-175.84 222 -158.68 222 -141 222 C-141 203.19 -141 184.38 -141 165 C-152.385 164.505 -152.385 164.505 -164 164 C-164 164.66 -164 165.32 -164 166 C-164.66 166 -165.32 166 -166 166 C-166.495 168.97 -166.495 168.97 -167 172 C-167.66 172 -168.32 172 -169 172 C-169.04125 172.5775 -169.0825 173.155 -169.125 173.75 C-170.46262649 177.18961098 -172.85957625 178.2413627 -176 180 C-176.99 180 -177.98 180 -179 180 C-179 180.66 -179 181.32 -179 182 C-186.82627937 184.35173912 -195.57622331 184.19109564 -202.875 180.5 C-204.26654757 179.6946027 -205.64895835 178.87163978 -207 178 C-207 177.34 -207 176.68 -207 176 C-207.99 175.67 -208.98 175.34 -210 175 C-212 172 -212 172 -212 169 C-212.66 169 -213.32 169 -214 169 C-214.92055082 165.091312 -215.13429682 161.44907765 -215.125 157.4375 C-215.12757813 156.32246094 -215.13015625 155.20742187 -215.1328125 154.05859375 C-215.02206147 151.50806272 -214.7467862 149.42409171 -214 147 C-213.34 147 -212.68 147 -212 147 C-211.896875 146.2575 -211.79375 145.515 -211.6875 144.75 C-210.95066203 141.8026481 -210.05200858 140.21616926 -208 138 C-207.34 138 -206.68 138 -206 138 C-206 137.34 -206 136.68 -206 136 C-197.75119726 130.99259671 -188.62073063 130.56360585 -179.28125 132.58984375 C-173.07464808 134.89606399 -169.38182896 139.44480727 -166 145 C-165.01 147.475 -165.01 147.475 -164 150 C-156.41 150 -148.82 150 -141 150 C-141 145.05 -141 140.1 -141 135 C-140.34 135 -139.68 135 -139 135 C-139.061875 133.989375 -139.12375 132.97875 -139.1875 131.9375 C-138.94343497 126.81213443 -137.28178462 123.56356924 -135 119 C-134.34 119 -133.68 119 -133 119 C-132.896875 118.401875 -132.79375 117.80375 -132.6875 117.1875 C-131.90175967 114.68741714 -131.03081147 113.62464918 -129 112 C-128.34 112 -127.68 112 -127 112 C-127 111.34 -127 110.68 -127 110 C-125.68 109.67 -124.36 109.34 -123 109 C-123 108.34 -123 107.68 -123 107 C-117.15439723 104.36536213 -112.45512034 102.43868519 -106 103 C-106 102.34 -106 101.68 -106 101 C-101.05 101 -96.1 101 -91 101 C-91 93.41 -91 85.82 -91 78 C-91.66 78 -92.32 78 -93 78 C-93 77.34 -93 76.68 -93 76 C-93.886875 75.9175 -94.77375 75.835 -95.6875 75.75 C-100.76836326 74.59961587 -103.12079235 72.18065027 -106.1875 68.0625 C-109.50167252 62.46269126 -110.27563494 58.17059622 -110.125 51.6875 C-110.11597656 50.94693359 -110.10695312 50.20636719 -110.09765625 49.44335938 C-110.07424213 47.62876533 -110.03837615 45.81433929 -110 44 C-109.34 44 -108.68 44 -108 44 C-107.8453125 42.63875 -107.8453125 42.63875 -107.6875 41.25 C-106.99350187 37.96928156 -106.29914332 36.39110905 -104 34 C-103.34 34 -102.68 34 -102 34 C-102 33.34 -102 32.68 -102 32 C-93.83081965 27.12991172 -87.61422191 26.31996967 -78 27 C-75.31407031 27.71316064 -73.4639372 28.63697091 -71 30 C-70.236875 30.28875 -69.47375 30.5775 -68.6875 30.875 C-66.32501135 32.44999243 -65.99890699 34.40284183 -65 37 C-64.01 37.33 -63.02 37.66 -62 38 C-62 38.99 -62 39.98 -62 41 C-61.34 41 -60.68 41 -60 41 C-59.02054878 45.08882017 -58.86608574 48.92638351 -58.875 53.125 C-58.87242187 54.34445313 -58.86984375 55.56390625 -58.8671875 56.8203125 C-59 60 -59 60 -60 63 C-60.66 63 -61.32 63 -62 63 C-62.33 64.98 -62.66 66.96 -63 69 C-63.66 69 -64.32 69 -65 69 C-65.33 69.99 -65.66 70.98 -66 72 C-67.83088239 72.59098102 -69.66468939 73.1729178 -71.5 73.75 C-73.315 75.1525 -75.13 76.555 -77 78 C-77.33 85.59 -77.66 93.18 -78 101 C-58.53 101 -39.06 101 -19 101 C-19 83.84 -19 66.68 -19 49 C-20.32 49 -21.64 49 -23 49 C-23 48.34 -23 47.68 -23 47 C-23.7425 46.938125 -24.485 46.87625 -25.25 46.8125 C-28.86065729 45.74571489 -29.84459336 44.0175693 -32 41 C-32.5775 40.46375 -33.155 39.9275 -33.75 39.375 C-35 38 -35 38 -35 35 C-35.66 35 -36.32 35 -37 35 C-38.22886899 31.31339303 -38.14560987 27.89937025 -38.125 24.0625 C-38.12886719 23.34642578 -38.13273438 22.63035156 -38.13671875 21.89257812 C-38.13035293 18.45821844 -38.07950442 15.28135074 -37 12 C-36.34 12 -35.68 12 -35 12 C-34.67 10.68 -34.34 9.36 -34 8 C-33.34 8 -32.68 8 -32 8 C-31.67 7.01 -31.34 6.02 -31 5 C-30.34 5 -29.68 5 -29 5 C-29 4.34 -29 3.68 -29 3 C-27.68 2.67 -26.36 2.34 -25 2 C-25 1.34 -25 0.68 -25 0 C-16.67128251 -2.96132177 -8.32871749 -2.96132177 0 0 Z " fill="#000101" transform="translate(270,23)"/>
<path d="M0 0 C0 0.66 0 1.32 0 2 C1.98 2.495 1.98 2.495 4 3 C4 3.66 4 4.32 4 5 C4.99 5.33 5.98 5.66 7 6 C7 6.66 7 7.32 7 8 C7.66 8 8.32 8 9 8 C9.33 9.32 9.66 10.64 10 12 C10.66 12 11.32 12 12 12 C13.2281641 15.82095497 13.13285092 19.51173039 13.125 23.5 C13.12757813 24.8096875 13.13015625 26.119375 13.1328125 27.46875 C13.02924755 30.22235924 12.83458014 32.40352847 12 35 C11.34 35 10.68 35 10 35 C9.938125 35.7425 9.87625 36.485 9.8125 37.25 C8.75439525 40.83127761 6.96747764 41.84857871 4 44 C3.67 44.66 3.34 45.32 3 46 C0.4375 46.625 0.4375 46.625 -2 47 C-2 47.66 -2 48.32 -2 49 C-3.32 49 -4.64 49 -6 49 C-6 66.16 -6 83.32 -6 101 C13.47 101 32.94 101 53 101 C52.67 93.41 52.34 85.82 52 78 C47.18577669 74.17840005 45.27226105 72.86875015 40 71 C40 70.34 40 69.68 40 69 C39.34 69 38.68 69 38 69 C37.67 67.02 37.34 65.04 37 63 C36.34 63 35.68 63 35 63 C33.84390768 59.53172305 33.86727602 56.7784416 33.875 53.125 C33.87242187 51.91070312 33.86984375 50.69640625 33.8671875 49.4453125 C33.98115702 46.48880905 34.31296899 43.86808185 35 41 C35.66 41 36.32 41 37 41 C37.33 39.68 37.66 38.36 38 37 C38.66 37 39.32 37 40 37 C40.185625 36.2575 40.37125 35.515 40.5625 34.75 C42.76245665 30.54138727 46.39579096 28.86061844 50.8203125 27.3984375 C53.73578224 26.86550217 56.53762918 26.86820557 59.5 26.875 C60.6240625 26.87242188 61.748125 26.86984375 62.90625 26.8671875 C65.4720699 26.97733633 67.56266427 27.24729338 70 28 C70 28.66 70 29.32 70 30 C70.78375 30.144375 71.5675 30.28875 72.375 30.4375 C75 31 75 31 77 32 C77 32.66 77 33.32 77 34 C77.99 34.33 78.98 34.66 80 35 C80 35.99 80 36.98 80 38 C80.66 38 81.32 38 82 38 C82.33 39.98 82.66 41.96 83 44 C83.66 44 84.32 44 85 44 C85.80625667 62.45431923 85.80625667 62.45431923 78.5625 70.8125 C72.48571429 76 72.48571429 76 68 76 C68 76.66 68 77.32 68 78 C67.34 78 66.68 78 66 78 C66 85.59 66 93.18 66 101 C70.95 101 75.9 101 81 101 C81 101.66 81 102.32 81 103 C81.94875 102.9175 82.8975 102.835 83.875 102.75 C89.00795078 102.70784024 93.39864495 104.92614984 98 107 C98 107.66 98 108.32 98 109 C99.32 109.33 100.64 109.66 102 110 C102 110.66 102 111.32 102 112 C102.61875 112.28875 103.2375 112.5775 103.875 112.875 C106 114 106 114 108 116 C108 116.99 108 117.98 108 119 C108.66 119 109.32 119 110 119 C113.7811405 124.44484232 114.12605926 128.44491837 114 135 C114.66 135 115.32 135 116 135 C116 139.95 116 144.9 116 150 C123.59 150 131.18 150 139 150 C140.98 146.04 140.98 146.04 143 142 C146.71949667 136.47389066 150.59233857 133.5974282 157 132 C165.76695277 131.06815469 173.35358041 131.35827104 181 136 C181 136.66 181 137.32 181 138 C181.99 138.33 182.98 138.66 184 139 C186.07530387 141.92079805 187 143.37546731 187 147 C187.66 147 188.32 147 189 147 C190.08187107 150.51178784 190.13346699 153.77552566 190.125 157.4375 C190.12757813 158.54996094 190.13015625 159.66242188 190.1328125 160.80859375 C190.01399223 163.66377492 189.65353269 166.22507946 189 169 C188.34 169 187.68 169 187 169 C186.87625 169.598125 186.7525 170.19625 186.625 170.8125 C186 173 186 173 184 176 C183.34 176 182.68 176 182 176 C181.67 176.66 181.34 177.32 181 178 C175.20629933 182.24871383 171.59692303 183.14127735 164.5 183.125 C163.3759375 183.12757813 162.251875 183.13015625 161.09375 183.1328125 C158.5279301 183.02266367 156.43733573 182.75270662 154 182 C154 181.34 154 180.68 154 180 C153.278125 179.9175 152.55625 179.835 151.8125 179.75 C148.38772874 178.83672766 146.52992571 177.45764212 144 175 C144 174.01 144 173.02 144 172 C143.34 172 142.68 172 142 172 C141.67 170.02 141.34 168.04 141 166 C140.34 166 139.68 166 139 166 C139 165.34 139 164.68 139 164 C131.41 164.33 123.82 164.66 116 165 C116 183.81 116 202.62 116 222 C133.16 222 150.32 222 168 222 C168.66 220.35 169.32 218.7 170 217 C172.4907614 212.79147212 174.9101176 209.72658827 179 207 C179.99 207 180.98 207 182 207 C182 206.34 182 205.68 182 205 C185.65947553 203.85013986 189.11946653 203.86685052 192.9375 203.875 C194.74541016 203.87113281 194.74541016 203.87113281 196.58984375 203.8671875 C199.53222592 203.98178199 202.14489223 204.31737461 205 205 C205 205.66 205 206.32 205 207 C206.32 207.33 207.64 207.66 209 208 C209 208.66 209 209.32 209 210 C209.99 210.33 210.98 210.66 212 211 C212 211.66 212 212.32 212 213 C212.99 213.33 213.98 213.66 215 214 C215 214.99 215 215.98 215 217 C215.66 217 216.32 217 217 217 C219.96132177 225.32871749 219.96132177 233.67128251 217 242 C216.34 242 215.68 242 215 242 C214.67 243.32 214.34 244.64 214 246 C213.34 246 212.68 246 212 246 C211.67 246.99 211.34 247.98 211 249 C210.34 249 209.68 249 209 249 C209 249.66 209 250.32 209 251 C207.68 251.33 206.36 251.66 205 252 C205 252.66 205 253.32 205 254 C201.17904503 255.2281641 197.48826961 255.13285092 193.5 255.125 C192.1903125 255.12757813 190.880625 255.13015625 189.53125 255.1328125 C186.77764076 255.02924755 184.59647153 254.83458014 182 254 C182 253.34 182 252.68 182 252 C181.25105469 251.91105469 180.50210937 251.82210937 179.73046875 251.73046875 C176.49833595 250.86579231 175.45371898 249.83865722 173.3125 247.3125 C172.73113281 246.64863281 172.14976562 245.98476563 171.55078125 245.30078125 C170 243 170 243 168 237 C150.84 237 133.68 237 116 237 C116 256.14 116 275.28 116 295 C123.59 295 131.18 295 139 295 C139 294.34 139 293.68 139 293 C139.66 293 140.32 293 141 293 C141.33 291.02 141.66 289.04 142 287 C142.66 287 143.32 287 144 287 C144.04125 286.4225 144.0825 285.845 144.125 285.25 C145.46262649 281.81038902 147.85957625 280.7586373 151 279 C151.99 279 152.98 279 154 279 C154 278.34 154 277.68 154 277 C160.50167028 275.03842551 168.89450104 274.71584433 175.1875 277.4375 C176.115625 277.953125 177.04375 278.46875 178 279 C178.66 279.33 179.32 279.66 180 280 C180 280.66 180 281.32 180 282 C180.78375 282.268125 181.5675 282.53625 182.375 282.8125 C185 284 185 284 187 287 C187 287.99 187 288.98 187 290 C187.66 290 188.32 290 189 290 C191.24872375 299.72618726 191.15697314 309.29760783 186 318 C185.34 318 184.68 318 184 318 C183.67 318.99 183.34 319.98 183 321 C182.34 321 181.68 321 181 321 C181 321.66 181 322.32 181 323 C178.09399739 324.25664978 176.20395416 325 173 325 C173 325.66 173 326.32 173 327 C154.70371194 327.8081796 154.70371194 327.8081796 148 323 C145.5625 320.3125 145.5625 320.3125 144 318 C143.34 317.67 142.68 317.34 142 317 C141.01 314.36 140.02 311.72 139 309 C131.41 309 123.82 309 116 309 C116 313.95 116 318.9 116 324 C115.34 324 114.68 324 114 324 C114.0928125 325.485 114.0928125 325.485 114.1875 327 C114.1875 331.52627617 112.90496742 334.90784777 111 339 C110.01 339.33 109.02 339.66 108 340 C107.64587656 341.32796291 107.31478446 342.66216607 107 344 C105.5625 345.75 105.5625 345.75 104 347 C103.34 347 102.68 347 102 347 C102 347.66 102 348.32 102 349 C100.68 349.33 99.36 349.66 98 350 C98 350.66 98 351.32 98 352 C96.35 352.33 94.7 352.66 93 353 C93 353.66 93 354.32 93 355 C89.32589215 356.17571451 85.83070817 356.07366746 82 356 C82 356.66 82 357.32 82 358 C76.72 358 71.44 358 66 358 C65.92487417 361.73525618 65.91285519 365.45269138 65.9375 369.1875 C65.90978516 370.24259766 65.88207031 371.29769531 65.85351562 372.38476562 C65.90258268 375.49561704 66.04393154 378.03508493 67 381 C69.73254405 383.45162516 72.63788328 384.62181493 76 386 C80.35828107 389.58347555 83.53262375 393.52339903 85 399 C85.46267743 404.32416272 85.23291126 409.66892012 85 415 C84.34 415 83.68 415 83 415 C82.67 416.98 82.34 418.96 82 421 C81.34 421 80.68 421 80 421 C79.67 422.32 79.34 423.64 79 425 C78.34 425 77.68 425 77 425 C77 425.66 77 426.32 77 427 C68.83081965 431.87008828 62.61422191 432.68003033 53 432 C50.31407031 431.28683936 48.4639372 430.36302909 46 429 C45.29875 428.731875 44.5975 428.46375 43.875 428.1875 C40.86450854 426.28085541 39.11090763 423.87317983 37 421 C37 420.01 37 419.02 37 418 C36.34 418 35.68 418 35 418 C33.76308349 414.16163211 33.8671671 410.44402655 33.875 406.4375 C33.87113281 405.76525391 33.86726563 405.09300781 33.86328125 404.40039062 C33.86938927 401.32500248 34.02008771 398.93973687 35 396 C35.66 396 36.32 396 37 396 C37.103125 395.2575 37.20625 394.515 37.3125 393.75 C38.07955008 390.68179969 38.85286035 389.30481297 41 387 C42.86747043 386.37294614 44.74341657 385.77084051 46.625 385.1875 C48.39875 383.805625 50.1725 382.42375 52 381 C52.33 373.41 52.66 365.82 53 358 C33.53 358 14.06 358 -6 358 C-6 375.16 -6 392.32 -6 410 C-5.01 410 -4.02 410 -3 410 C-3 410.66 -3 411.32 -3 412 C-2.0925 412.061875 -1.185 412.12375 -0.25 412.1875 C3.80191401 413.2004785 4.67184762 414.6281931 7 418 C7.5775 418.53625 8.155 419.0725 8.75 419.625 C10 421 10 421 10 424 C10.66 424 11.32 424 12 424 C13.2281641 427.82095497 13.13285092 431.51173039 13.125 435.5 C13.12757813 436.8096875 13.13015625 438.119375 13.1328125 439.46875 C13.02924755 442.22235924 12.83458014 444.40352847 12 447 C11.34 447 10.68 447 10 447 C9.67 448.32 9.34 449.64 9 451 C8.34 451 7.68 451 7 451 C6.67 451.99 6.34 452.98 6 454 C5.34 454 4.68 454 4 454 C4 454.66 4 455.32 4 456 C2.68 456.33 1.36 456.66 0 457 C0 457.66 0 458.32 0 459 C-8.32871749 461.96132177 -16.67128251 461.96132177 -25 459 C-25 458.34 -25 457.68 -25 457 C-26.32 456.67 -27.64 456.34 -29 456 C-29 455.34 -29 454.68 -29 454 C-29.99 453.67 -30.98 453.34 -32 453 C-32 452.34 -32 451.68 -32 451 C-32.99 450.67 -33.98 450.34 -35 450 C-35 449.01 -35 448.02 -35 447 C-35.66 447 -36.32 447 -37 447 C-38.2281641 443.17904503 -38.13285092 439.48826961 -38.125 435.5 C-38.12757813 434.1903125 -38.13015625 432.880625 -38.1328125 431.53125 C-38.02924755 428.77764076 -37.83458014 426.59647153 -37 424 C-36.34 424 -35.68 424 -35 424 C-34.938125 423.2575 -34.87625 422.515 -34.8125 421.75 C-33.75439525 418.16872239 -31.96747764 417.15142129 -29 415 C-28.67 414.34 -28.34 413.68 -28 413 C-25.00912499 411.62581418 -22.21015915 410.80253979 -19 410 C-19 392.84 -19 375.68 -19 358 C-38.47 358 -57.94 358 -78 358 C-77.67 365.59 -77.34 373.18 -77 381 C-71.84674832 385.55903559 -71.84674832 385.55903559 -67.8828125 386.7890625 C-64.37911075 388.26080714 -63.51021269 389.56769843 -62 393 C-62 393.99 -62 394.98 -62 396 C-61.34 396 -60.68 396 -60 396 C-58.84390768 399.46827695 -58.86727602 402.2215584 -58.875 405.875 C-58.87242187 407.08929688 -58.86984375 408.30359375 -58.8671875 409.5546875 C-58.98115702 412.51119095 -59.31296899 415.13191815 -60 418 C-60.66 418 -61.32 418 -62 418 C-62.33 419.32 -62.66 420.64 -63 422 C-63.66 422 -64.32 422 -65 422 C-65.185625 422.7425 -65.37125 423.485 -65.5625 424.25 C-67.76245665 428.45861273 -71.39579096 430.13938156 -75.8203125 431.6015625 C-78.73578224 432.13449783 -81.53762918 432.13179443 -84.5 432.125 C-85.6240625 432.12757813 -86.748125 432.13015625 -87.90625 432.1328125 C-90.4720699 432.02266367 -92.56266427 431.75270662 -95 431 C-95 430.34 -95 429.68 -95 429 C-95.78375 428.855625 -96.5675 428.71125 -97.375 428.5625 C-100 428 -100 428 -102 427 C-102 426.34 -102 425.68 -102 425 C-102.61875 424.7525 -103.2375 424.505 -103.875 424.25 C-106.41530728 422.7557016 -107.02864183 421.75218149 -108 419 C-108 417.68 -108 416.36 -108 415 C-108.66 415 -109.32 415 -110 415 C-110.46430393 404.37259893 -110.76966755 396.85987728 -103.8125 388.3125 C-101 386 -101 386 -98.79394531 385.09570312 C-96.12327486 383.98229074 -94.15989523 382.93784743 -92 381 C-90.73023757 377.06227179 -90.82959529 373.29540713 -90.9375 369.1875 C-90.93041016 368.11306641 -90.92332031 367.03863281 -90.91601562 365.93164062 C-90.9042645 363.28763832 -90.94683239 360.6434938 -91 358 C-96.28 358 -101.56 358 -107 358 C-107 357.34 -107 356.68 -107 356 C-108.0725 356.020625 -109.145 356.04125 -110.25 356.0625 C-113.14790424 356.0142016 -115.28612141 355.86844115 -118 355 C-118 354.34 -118 353.68 -118 353 C-119.65 352.67 -121.3 352.34 -123 352 C-123 351.34 -123 350.68 -123 350 C-124.32 349.67 -125.64 349.34 -127 349 C-127 348.34 -127 347.68 -127 347 C-127.61875 346.71125 -128.2375 346.4225 -128.875 346.125 C-131 345 -131 345 -133 343 C-133 342.01 -133 341.02 -133 340 C-133.99 339.67 -134.98 339.34 -136 339 C-138.45790037 333.72006588 -139.36134972 329.78159553 -139 324 C-139.66 324 -140.32 324 -141 324 C-141 319.05 -141 314.1 -141 309 C-148.59 309 -156.18 309 -164 309 C-165.32 311.64 -166.64 314.28 -168 317 C-171.70255318 322.50093615 -175.5801514 325.49046803 -182 327 C-187.32879873 327.44011345 -192.66544638 327.23563672 -198 327 C-198 326.34 -198 325.68 -198 325 C-198.763125 324.855625 -199.52625 324.71125 -200.3125 324.5625 C-203 324 -203 324 -206 323 C-206 322.34 -206 321.68 -206 321 C-206.99 320.67 -207.98 320.34 -209 320 C-209 319.34 -209 318.68 -209 318 C-209.66 318 -210.32 318 -211 318 C-216.15697314 309.29760783 -216.24872375 299.72618726 -214 290 C-213.34 290 -212.68 290 -212 290 C-211.9175 289.4225 -211.835 288.845 -211.75 288.25 C-210.78202213 285.3460664 -209.31305716 283.96259396 -207 282 C-206.34 282 -205.68 282 -205 282 C-205 281.34 -205 280.68 -205 280 C-199.80028665 276.38908795 -195.75032301 275.8606644 -189.5 275.875 C-188.3759375 275.87242187 -187.251875 275.86984375 -186.09375 275.8671875 C-183.5279301 275.97733633 -181.43733573 276.24729338 -179 277 C-179 277.66 -179 278.32 -179 279 C-178.278125 279.061875 -177.55625 279.12375 -176.8125 279.1875 C-173.11600926 280.2553751 -171.46861132 282.10819816 -169 285 C-169 285.66 -169 286.32 -169 287 C-168.34 287 -167.68 287 -167 287 C-166.67 288.98 -166.34 290.96 -166 293 C-165.34 293 -164.68 293 -164 293 C-164 293.66 -164 294.32 -164 295 C-156.41 295 -148.82 295 -141 295 C-141 275.86 -141 256.72 -141 237 C-158.16 237 -175.32 237 -193 237 C-194.05772111 239.64430277 -195.09938293 242.29814878 -196 245 C-197.63260714 246.37482707 -199.30225062 247.70647667 -201 249 C-201.53625 249.5775 -202.0725 250.155 -202.625 250.75 C-204 252 -204 252 -207 252 C-207 252.66 -207 253.32 -207 254 C-210.82095497 255.2281641 -214.51173039 255.13285092 -218.5 255.125 C-219.8096875 255.12757813 -221.119375 255.13015625 -222.46875 255.1328125 C-225.22235924 255.02924755 -227.40352847 254.83458014 -230 254 C-230 253.34 -230 252.68 -230 252 C-231.32 251.67 -232.64 251.34 -234 251 C-234 250.34 -234 249.68 -234 249 C-234.99 248.67 -235.98 248.34 -237 248 C-237 247.34 -237 246.68 -237 246 C-237.99 245.67 -238.98 245.34 -240 245 C-240 244.01 -240 243.02 -240 242 C-240.66 242 -241.32 242 -242 242 C-244.96132177 233.67128251 -244.96132177 225.32871749 -242 217 C-241.34 217 -240.68 217 -240 217 C-239.505 215.02 -239.505 215.02 -239 213 C-238.34 213 -237.68 213 -237 213 C-236.67 212.01 -236.34 211.02 -236 210 C-235.34 210 -234.68 210 -234 210 C-234 209.34 -234 208.68 -234 208 C-232.35 207.67 -230.7 207.34 -229 207 C-229 206.34 -229 205.68 -229 205 C-225.3226718 203.84164162 -221.83678577 203.86687122 -218 203.875 C-216.783125 203.87242187 -215.56625 203.86984375 -214.3125 203.8671875 C-211.65249989 203.97383845 -209.51771029 204.20692126 -207 205 C-207 205.66 -207 206.32 -207 207 C-206.25105469 207.07734375 -205.50210938 207.1546875 -204.73046875 207.234375 C-201.31526791 208.19199927 -200.39439118 209.42424208 -198.3125 212.25 C-197.44044922 213.40242188 -197.44044922 213.40242188 -196.55078125 214.578125 C-195 217 -195 217 -193 222 C-175.84 222 -158.68 222 -141 222 C-141 203.19 -141 184.38 -141 165 C-152.385 164.505 -152.385 164.505 -164 164 C-164 164.66 -164 165.32 -164 166 C-164.66 166 -165.32 166 -166 166 C-166.495 168.97 -166.495 168.97 -167 172 C-167.66 172 -168.32 172 -169 172 C-169.04125 172.5775 -169.0825 173.155 -169.125 173.75 C-170.46262649 177.18961098 -172.85957625 178.2413627 -176 180 C-176.99 180 -177.98 180 -179 180 C-179 180.66 -179 181.32 -179 182 C-186.82627937 184.35173912 -195.57622331 184.19109564 -202.875 180.5 C-204.26654757 179.6946027 -205.64895835 178.87163978 -207 178 C-207 177.34 -207 176.68 -207 176 C-207.99 175.67 -208.98 175.34 -210 175 C-212 172 -212 172 -212 169 C-212.66 169 -213.32 169 -214 169 C-214.92055082 165.091312 -215.13429682 161.44907765 -215.125 157.4375 C-215.12757813 156.32246094 -215.13015625 155.20742187 -215.1328125 154.05859375 C-215.02206147 151.50806272 -214.7467862 149.42409171 -214 147 C-213.34 147 -212.68 147 -212 147 C-211.896875 146.2575 -211.79375 145.515 -211.6875 144.75 C-210.95066203 141.8026481 -210.05200858 140.21616926 -208 138 C-207.34 138 -206.68 138 -206 138 C-206 137.34 -206 136.68 -206 136 C-197.75119726 130.99259671 -188.62073063 130.56360585 -179.28125 132.58984375 C-173.07464808 134.89606399 -169.38182896 139.44480727 -166 145 C-165.01 147.475 -165.01 147.475 -164 150 C-156.41 150 -148.82 150 -141 150 C-141 145.05 -141 140.1 -141 135 C-140.34 135 -139.68 135 -139 135 C-139.061875 133.989375 -139.12375 132.97875 -139.1875 131.9375 C-138.94343497 126.81213443 -137.28178462 123.56356924 -135 119 C-134.34 119 -133.68 119 -133 119 C-132.896875 118.401875 -132.79375 117.80375 -132.6875 117.1875 C-131.90175967 114.68741714 -131.03081147 113.62464918 -129 112 C-128.34 112 -127.68 112 -127 112 C-127 111.34 -127 110.68 -127 110 C-125.68 109.67 -124.36 109.34 -123 109 C-123 108.34 -123 107.68 -123 107 C-117.15439723 104.36536213 -112.45512034 102.43868519 -106 103 C-106 102.34 -106 101.68 -106 101 C-101.05 101 -96.1 101 -91 101 C-91 93.41 -91 85.82 -91 78 C-91.66 78 -92.32 78 -93 78 C-93 77.34 -93 76.68 -93 76 C-93.886875 75.9175 -94.77375 75.835 -95.6875 75.75 C-100.76836326 74.59961587 -103.12079235 72.18065027 -106.1875 68.0625 C-109.50167252 62.46269126 -110.27563494 58.17059622 -110.125 51.6875 C-110.11597656 50.94693359 -110.10695312 50.20636719 -110.09765625 49.44335938 C-110.07424213 47.62876533 -110.03837615 45.81433929 -110 44 C-109.34 44 -108.68 44 -108 44 C-107.8453125 42.63875 -107.8453125 42.63875 -107.6875 41.25 C-106.99350187 37.96928156 -106.29914332 36.39110905 -104 34 C-103.34 34 -102.68 34 -102 34 C-102 33.34 -102 32.68 -102 32 C-93.83081965 27.12991172 -87.61422191 26.31996967 -78 27 C-75.31407031 27.71316064 -73.4639372 28.63697091 -71 30 C-70.236875 30.28875 -69.47375 30.5775 -68.6875 30.875 C-66.32501135 32.44999243 -65.99890699 34.40284183 -65 37 C-64.01 37.33 -63.02 37.66 -62 38 C-62 38.99 -62 39.98 -62 41 C-61.34 41 -60.68 41 -60 41 C-59.02054878 45.08882017 -58.86608574 48.92638351 -58.875 53.125 C-58.87242187 54.34445313 -58.86984375 55.56390625 -58.8671875 56.8203125 C-59 60 -59 60 -60 63 C-60.66 63 -61.32 63 -62 63 C-62.33 64.98 -62.66 66.96 -63 69 C-63.66 69 -64.32 69 -65 69 C-65.33 69.99 -65.66 70.98 -66 72 C-67.83088239 72.59098102 -69.66468939 73.1729178 -71.5 73.75 C-73.315 75.1525 -75.13 76.555 -77 78 C-77.33 85.59 -77.66 93.18 -78 101 C-58.53 101 -39.06 101 -19 101 C-19 83.84 -19 66.68 -19 49 C-20.32 49 -21.64 49 -23 49 C-23 48.34 -23 47.68 -23 47 C-23.7425 46.938125 -24.485 46.87625 -25.25 46.8125 C-28.86065729 45.74571489 -29.84459336 44.0175693 -32 41 C-32.5775 40.46375 -33.155 39.9275 -33.75 39.375 C-35 38 -35 38 -35 35 C-35.66 35 -36.32 35 -37 35 C-38.22886899 31.31339303 -38.14560987 27.89937025 -38.125 24.0625 C-38.12886719 23.34642578 -38.13273438 22.63035156 -38.13671875 21.89257812 C-38.13035293 18.45821844 -38.07950442 15.28135074 -37 12 C-36.34 12 -35.68 12 -35 12 C-34.67 10.68 -34.34 9.36 -34 8 C-33.34 8 -32.68 8 -32 8 C-31.67 7.01 -31.34 6.02 -31 5 C-30.34 5 -29.68 5 -29 5 C-29 4.34 -29 3.68 -29 3 C-27.68 2.67 -26.36 2.34 -25 2 C-25 1.34 -25 0.68 -25 0 C-16.67128251 -2.96132177 -8.32871749 -2.96132177 0 0 Z M-113 115 C-113 115.66 -113 116.32 -113 117 C-113.74894531 117.08507812 -114.49789062 117.17015625 -115.26953125 117.2578125 C-118.55736868 118.15150222 -119.55859396 119.26290406 -121.6875 121.875 C-122.26886719 122.57367188 -122.85023438 123.27234375 -123.44921875 123.9921875 C-127.9771902 129.8545989 -128.14892189 134.68614988 -128.12698364 141.90811157 C-128.12854363 142.6983926 -128.13010362 143.48867364 -128.13171089 144.30290258 C-128.13569543 146.94755956 -128.13254112 149.59215901 -128.12939453 152.23681641 C-128.13074968 154.13414036 -128.13253025 156.03146404 -128.13470459 157.92878723 C-128.13926479 163.07936132 -128.13749531 168.22991539 -128.1343255 173.38048983 C-128.13179537 178.76695593 -128.1341412 184.15342031 -128.13571167 189.53988647 C-128.13753113 198.58356026 -128.13513256 207.62722589 -128.13037109 216.67089844 C-128.12492562 227.13476357 -128.1266941 237.59860923 -128.1321975 248.06247389 C-128.13673104 257.04089291 -128.13737809 266.01930605 -128.13475883 274.99772584 C-128.13319781 280.36276149 -128.13299758 285.72778797 -128.13629532 291.09282303 C-128.13917763 296.13411308 -128.13719167 301.17537794 -128.13140106 306.21666527 C-128.13007555 308.06984986 -128.13046406 309.92303656 -128.13266373 311.77622032 C-128.13538329 314.29946103 -128.13198417 316.82262024 -128.12698364 319.34585571 C-128.12921436 320.08465961 -128.13144509 320.82346351 -128.13374341 321.5846554 C-128.12183338 324.66834084 -127.98332418 327.05002747 -127 330 C-126.34 330 -125.68 330 -125 330 C-124.938125 330.721875 -124.87625 331.44375 -124.8125 332.1875 C-123.38815451 337.1179267 -119.60343951 339.81588306 -115.49215698 342.61978149 C-108.06222055 346.63276782 -99.33130505 345.66093922 -91.12548828 345.58349609 C-89.20786904 345.58372301 -87.29024901 345.58614093 -85.37263489 345.59057617 C-80.18489101 345.59626568 -74.99771257 345.5710484 -69.81007624 345.53990126 C-64.37827716 345.51229807 -58.9464762 345.51235849 -53.51461792 345.50918579 C-44.40059663 345.49999404 -35.2867859 345.47249524 -26.17285156 345.43212891 C-13.31024455 345.37521223 -0.44774306 345.3529636 12.41497016 345.33684421 C21.32132581 345.32439913 30.22766538 345.3037205 39.13400126 345.2814641 C41.29467671 345.27610008 43.45535274 345.27096373 45.61602926 345.26605177 C51.76973349 345.25176583 57.92337719 345.23235954 64.0770359 345.20457458 C65.94311848 345.19684323 67.80920884 345.19078568 69.67530251 345.18649673 C72.21586242 345.18029395 74.75631759 345.16794829 77.29684448 345.15390015 C78.0407018 345.15340239 78.78455911 345.15290463 79.55095756 345.15239179 C82.64052905 345.12932498 85.04512229 344.98495924 88 344 C88 343.34 88 342.68 88 342 C89.65 341.67 91.3 341.34 93 341 C93 340.34 93 339.68 93 339 C93.99 338.67 94.98 338.34 96 338 C99.31411914 334.54923283 99.31411914 334.54923283 100 330 C100.66 330 101.32 330 102 330 C103.04835476 325.71073828 103.14566773 321.54573317 103.14044189 317.1567688 C103.14341302 316.37339358 103.14638414 315.59001837 103.1494453 314.78290451 C103.15810778 312.16141114 103.15963845 309.53996357 103.16113281 306.91845703 C103.16576264 305.0374746 103.17078752 303.1564931 103.17617798 301.2755127 C103.18928619 296.16806399 103.1957436 291.06062842 103.20018864 285.95316553 C103.20312129 282.7618546 103.20722641 279.57054725 103.21169281 276.37923813 C103.22536221 266.39303642 103.23503218 256.4068429 103.2388947 246.42063248 C103.24337732 234.89495766 103.26093706 223.36940131 103.2898953 211.84376252 C103.31150795 202.93237093 103.32159872 194.0210127 103.32293582 185.10959518 C103.32398394 179.78798419 103.32989356 174.46648466 103.34775543 169.14490128 C103.36422935 164.13966289 103.36639489 159.13461985 103.35761642 154.12936401 C103.35684575 152.29397941 103.36119279 150.45858433 103.37107468 148.62322617 C103.3837894 146.11431795 103.37792021 143.60610217 103.36749268 141.09719849 C103.37554908 140.3739369 103.38360548 139.65067532 103.39190602 138.90549672 C103.32180049 131.67492649 100.89564034 126.3276086 96 121 C92.53299597 117.67658017 92.53299597 117.67658017 88 117 C88 116.34 88 115.68 88 115 C83.71710264 113.95220678 79.56355042 113.85953637 75.18127441 113.87301636 C74.40057162 113.87145637 73.61986882 113.86989638 72.81550837 113.86828911 C70.20315817 113.86430493 67.59086624 113.86745877 64.97851562 113.87060547 C63.10414089 113.86925029 61.22976642 113.86746969 59.35539246 113.86529541 C54.2666655 113.86073503 49.17795881 113.86250492 44.08923149 113.8656745 C38.7650942 113.86820528 33.44095865 113.86585855 28.11682129 113.86428833 C19.1756967 113.86246874 10.23458037 113.86486744 1.29345703 113.86962891 C-9.0454002 113.87507112 -19.38423771 113.87330831 -29.72309446 113.8678025 C-38.59793628 113.86326539 -47.47277216 113.86262376 -56.34761477 113.86524117 C-61.64899805 113.86680064 -66.95037207 113.86700671 -72.25175476 113.86370468 C-77.23559683 113.86081731 -82.21941347 113.86281767 -87.20325279 113.86859894 C-89.0330215 113.86992187 -90.86279234 113.86954032 -92.6925602 113.86733627 C-95.18882723 113.86460649 -97.68501259 113.86802836 -100.18127441 113.87301636 C-100.90647073 113.87078564 -101.63166705 113.86855491 -102.37883902 113.86625659 C-106.0451016 113.88047957 -109.43448712 114.12771195 -113 115 Z " fill="#0095F7" transform="translate(270,23)"/>
<path d="M0 0 C18.0675 -0.04125 36.135 -0.0825 54.75 -0.125 C60.43573242 -0.14320801 66.12146484 -0.16141602 71.97949219 -0.18017578 C78.97119141 -0.18920898 78.97119141 -0.18920898 82.25372314 -0.19088745 C84.52570379 -0.19394034 86.79768138 -0.20093622 89.06964111 -0.21115112 C92.52923128 -0.22591589 95.98862497 -0.2278078 99.44824219 -0.22705078 C100.44495312 -0.234247 101.44166405 -0.24144321 102.46857834 -0.2488575 C112.43167484 -0.21992026 121.79708025 1.10645703 131 5 C131 5.66 131 6.32 131 7 C131.72445312 7.09152344 132.44890625 7.18304688 133.1953125 7.27734375 C142.4722641 9.66764465 149.9401885 19.66526704 155.25 27.1875 C157.60638782 31.53619855 158.3972652 36.40348299 159.38671875 41.20703125 C159.8667934 43.93773558 159.8667934 43.93773558 161 46 C162.68717976 68.91360961 161.16340059 90.15010881 145.75 108.25 C141.373318 112.90161788 136.55624816 116.828002 131 120 C130.34 120 129.68 120 129 120 C129 120.66 129 121.32 129 122 C122.08616486 124.13120646 115.70118424 124.23698014 108.5 124.125 C107.39140625 124.11597656 106.2828125 124.10695313 105.140625 124.09765625 C102.42685408 124.07426167 99.71354455 124.04148175 97 124 C96.99413376 123.08180481 96.98826752 122.16360962 96.98222351 121.21759033 C96.9243262 112.56557105 96.85226652 103.91381074 96.76428509 95.262043 C96.71955241 90.81403667 96.68030277 86.36612254 96.65356445 81.91796875 C96.62756023 77.62544719 96.58717854 73.33327992 96.53681374 69.04097748 C96.52012546 67.40316931 96.50862339 65.76529983 96.50238609 64.12741852 C96.49276607 61.83359108 96.46473362 59.54067399 96.43237305 57.24707031 C96.42126999 55.94135071 96.41016693 54.6356311 96.39872742 53.29034424 C95.89051985 48.98886666 95.89051985 48.98886666 93 46 C80.9771677 43.04185572 80.9771677 43.04185572 56 43 C56 95.47 56 147.94 56 202 C37.52 202 19.04 202 0 202 C0 135.34 0 68.68 0 0 Z " fill="#FDFDFD" transform="translate(187,153)"/>
<path d="M0 0 C0.33 0 0.66 0 1 0 C1 66.66 1 133.32 1 202 C19.48 202 37.96 202 57 202 C57 149.53 57 97.06 57 43 C85 43 85 43 94 45 C94 45.33 94 45.66 94 46 C91.75006641 46.02707139 89.50003905 46.04642829 87.25 46.0625 C85.99703125 46.07410156 84.7440625 46.08570313 83.453125 46.09765625 C80 46 80 46 76 45 C70.06 44.67 64.12 44.34 58 44 C58 96.8 58 149.6 58 204 C38.86 204 19.72 204 0 204 C0 136.68 0 69.36 0 0 Z " fill="#484749" transform="translate(186,153)"/>
<path d="M0 0 C7.78848121 -0.02314533 15.5769544 -0.04092629 23.36546135 -0.05181217 C26.98177172 -0.05703619 30.59805861 -0.06412515 34.21435547 -0.07543945 C37.70268104 -0.08628538 41.19098398 -0.09228047 44.6793251 -0.09487724 C46.66137692 -0.09763081 48.6434196 -0.1054401 50.62545776 -0.11329651 C51.82655182 -0.11337204 53.02764587 -0.11344757 54.26513672 -0.11352539 C55.85731522 -0.11685631 55.85731522 -0.11685631 57.48165894 -0.12025452 C60 0 60 0 62 1 C62.05784708 5.12494151 62.09354407 9.24977944 62.125 13.375 C62.14175781 14.550625 62.15851563 15.72625 62.17578125 16.9375 C62.18544922 18.61972656 62.18544922 18.61972656 62.1953125 20.3359375 C62.21102295 21.89127197 62.21102295 21.89127197 62.22705078 23.47802734 C62 26 62 26 60 28 C58.7625 28.433125 57.525 28.86625 56.25 29.3125 C51.99608378 30.81844844 49.29744695 32.94986157 46 36 C45.01 35.505 45.01 35.505 44 35 C46.36964146 31.1070176 48.37563273 30.50491598 52.625 29.1875 C54.39875 27.805625 56.1725 26.42375 58 25 C58.33 17.41 58.66 9.82 59 2 C39.53 2 20.06 2 0 2 C0 1.34 0 0.68 0 0 Z " fill="#0060A2" transform="translate(264,379)"/>
<path d="M0 0 C28 0 28 0 37 2 C37 2.33 37 2.66 37 3 C34.75006641 3.02707139 32.50003905 3.04642829 30.25 3.0625 C28.99703125 3.07410156 27.7440625 3.08570313 26.453125 3.09765625 C23 3 23 3 19 2 C13.06 1.67 7.12 1.34 1 1 C1 53.14 1 105.28 1 159 C0.67 159 0.34 159 0 159 C0 106.53 0 54.06 0 0 Z " fill="#716F72" transform="translate(243,196)"/>
<path d="M0 0 C1.06367294 0.00222061 2.12734589 0.00444122 3.22325134 0.00672913 C5.02500572 0.00684242 5.02500572 0.00684242 6.86315918 0.00695801 C8.17042465 0.01211929 9.47769012 0.01728058 10.8245697 0.02259827 C12.16835477 0.02446253 13.51214052 0.02588639 14.85592651 0.02688599 C18.39873622 0.0307105 21.94150515 0.0405402 25.48429871 0.05158997 C29.09706572 0.06180552 32.7098393 0.06638392 36.32261658 0.07142639 C43.41573225 0.08216254 50.50882019 0.09923816 57.60191345 0.12025452 C57.60191345 0.78025452 57.60191345 1.44025452 57.60191345 2.12025452 C38.13191345 2.12025452 18.66191345 2.12025452 -1.39808655 2.12025452 C-1.06808655 9.71025452 -0.73808655 17.30025452 -0.39808655 25.12025452 C4.81190736 29.73491658 4.81190736 29.73491658 8.8167572 31.00697327 C11.60191345 32.12025452 11.60191345 32.12025452 12.9808197 34.26478577 C13.18578064 34.87709045 13.39074158 35.48939514 13.60191345 36.12025452 C11.1291355 35.0212421 9.35317764 33.90513165 7.28941345 32.12025452 C4.16977685 29.79866449 1.32590286 29.12286705 -2.39808655 28.12025452 C-3.72222744 25.47197273 -3.52765697 23.4534534 -3.53089905 20.49134827 C-3.53218811 19.37437561 -3.53347717 18.25740295 -3.5348053 17.10658264 C-3.53093811 15.93546936 -3.52707092 14.76435608 -3.52308655 13.55775452 C-3.52695374 12.38277405 -3.53082092 11.20779358 -3.5348053 9.99720764 C-3.53351624 8.88152405 -3.53222717 7.76584045 -3.53089905 6.61634827 C-3.52977112 5.58695129 -3.52864319 4.55755432 -3.52748108 3.4969635 C-3.35226609 0.2786278 -3.22102703 0.16152171 0 0 Z " fill="#0064A8" transform="translate(193.39808654785156,378.87974548339844)"/>
<path d="M0 0 C0.99 0.495 0.99 0.495 2 1 C2 20.14 2 39.28 2 59 C9.59 59 17.18 59 25 59 C25 58.34 25 57.68 25 57 C25.66 57 26.32 57 27 57 C27.33 55.02 27.66 53.04 28 51 C28.66 51.33 29.32 51.66 30 52 C29.71848913 53.31471568 29.42446661 54.62675767 29.125 55.9375 C28.96257812 56.66839844 28.80015625 57.39929688 28.6328125 58.15234375 C28 60 28 60 26 61 C24.12567237 61.09677483 22.24791692 61.13075828 20.37109375 61.1328125 C18.69563477 61.13474609 18.69563477 61.13474609 16.98632812 61.13671875 C15.81521484 61.13285156 14.64410156 61.12898438 13.4375 61.125 C12.26251953 61.12886719 11.08753906 61.13273437 9.87695312 61.13671875 C8.20342773 61.13478516 8.20342773 61.13478516 6.49609375 61.1328125 C5.46669678 61.13168457 4.4372998 61.13055664 3.37670898 61.12939453 C1 61 1 61 0 60 C-0.09386381 58.1281906 -0.11743804 56.2528194 -0.11352539 54.37866211 C-0.11344986 53.17749252 -0.11337433 51.97632294 -0.11329651 50.73875427 C-0.10813522 49.4314888 -0.10297394 48.12422333 -0.09765625 46.77734375 C-0.09579198 45.43355868 -0.09436812 44.08977293 -0.09336853 42.74598694 C-0.08954402 39.20317723 -0.07971432 35.6604083 -0.06866455 32.11761475 C-0.05844899 28.50484773 -0.0538706 24.89207416 -0.04882812 21.27929688 C-0.03809198 14.1861812 -0.02101636 7.09309326 0 0 Z " fill="#00558E" transform="translate(384,259)"/>
<path d="M0 0 C1.12019531 -0.00128906 2.24039063 -0.00257813 3.39453125 -0.00390625 C4.57402344 -0.00003906 5.75351563 0.00382813 6.96875 0.0078125 C8.73798828 0.00201172 8.73798828 0.00201172 10.54296875 -0.00390625 C12.22326172 -0.00197266 12.22326172 -0.00197266 13.9375 0 C14.97326172 0.00112793 16.00902344 0.00225586 17.07617188 0.00341797 C19.46875 0.1328125 19.46875 0.1328125 20.46875 1.1328125 C20.56261381 3.0046219 20.58618804 4.8799931 20.58227539 6.75415039 C20.58219986 7.95531998 20.58212433 9.15648956 20.58204651 10.39405823 C20.57688522 11.7013237 20.57172394 13.00858917 20.56640625 14.35546875 C20.56454198 15.69925382 20.56311812 17.04303957 20.56211853 18.38682556 C20.55829402 21.92963527 20.54846432 25.4724042 20.53741455 29.01519775 C20.52719899 32.62796477 20.5226206 36.24073834 20.51757812 39.85351562 C20.50684198 46.9466313 20.48976636 54.03971924 20.46875 61.1328125 C19.80875 60.8028125 19.14875 60.4728125 18.46875 60.1328125 C18.46875 41.3228125 18.46875 22.5128125 18.46875 3.1328125 C7.08375 2.6378125 7.08375 2.6378125 -4.53125 2.1328125 C-4.53125 2.7928125 -4.53125 3.4528125 -4.53125 4.1328125 C-5.19125 4.1328125 -5.85125 4.1328125 -6.53125 4.1328125 C-6.86125 6.1128125 -7.19125 8.0928125 -7.53125 10.1328125 C-8.19125 9.8028125 -8.85125 9.4728125 -9.53125 9.1328125 C-9.05543802 7.81909263 -8.57549851 6.50686704 -8.09375 5.1953125 C-7.82691406 4.46441406 -7.56007813 3.73351562 -7.28515625 2.98046875 C-5.76175483 -0.75304872 -3.80598206 0.00414466 0 0 Z " fill="#00558E" transform="translate(110.53125,184.8671875)"/>
<path d="M0 0 C1.17111328 -0.01224609 2.34222656 -0.02449219 3.54882812 -0.03710938 C4.66580078 -0.03904297 5.78277344 -0.04097656 6.93359375 -0.04296875 C7.96411865 -0.04707764 8.99464355 -0.05118652 10.05639648 -0.05541992 C12.5625 0.1875 12.5625 0.1875 14.5625 2.1875 C15.4188027 4.81983792 15.95179927 7.48296818 16.5625 10.1875 C15.9025 10.1875 15.2425 10.1875 14.5625 10.1875 C14.2325 8.2075 13.9025 6.2275 13.5625 4.1875 C12.9025 4.1875 12.2425 4.1875 11.5625 4.1875 C11.5625 3.5275 11.5625 2.8675 11.5625 2.1875 C3.9725 2.5175 -3.6175 2.8475 -11.4375 3.1875 C-11.4375 21.9975 -11.4375 40.8075 -11.4375 60.1875 C-12.4275 60.6825 -12.4275 60.6825 -13.4375 61.1875 C-13.46062792 53.38174805 -13.47841738 45.57600405 -13.48931217 37.77022648 C-13.49454002 34.1460404 -13.50163587 30.5218777 -13.51293945 26.89770508 C-13.52377184 23.40290025 -13.52977758 19.90811796 -13.53237724 16.41329765 C-13.53513551 14.42510611 -13.54294688 12.43692369 -13.55079651 10.44874573 C-13.55087204 9.24757614 -13.55094757 8.04640656 -13.55102539 6.80883789 C-13.553246 5.74516495 -13.55546661 4.681492 -13.55775452 3.58558655 C-13.26061197 -2.33995842 -4.51176016 0.00247491 0 0 Z " fill="#00558F" transform="translate(397.4375,184.8125)"/>
<path d="M0 0 C0.33 0 0.66 0 1 0 C1.02312792 7.80575195 1.04091738 15.61149595 1.05181217 23.41727352 C1.05704002 27.0414596 1.06413587 30.6656223 1.07543945 34.28979492 C1.08627184 37.78459975 1.09227758 41.27938204 1.09487724 44.77420235 C1.09763551 46.76239389 1.10544688 48.75057631 1.11329651 50.73875427 C1.11340981 52.54050865 1.11340981 52.54050865 1.11352539 54.37866211 C1.115746 55.44233505 1.11796661 56.506008 1.12025452 57.60191345 C1 60 1 60 0 61 C-1.85369611 61.08737645 -3.71067541 61.10698153 -5.56640625 61.09765625 C-6.69111328 61.09443359 -7.81582031 61.09121094 -8.97460938 61.08789062 C-10.15861328 61.07951172 -11.34261719 61.07113281 -12.5625 61.0625 C-13.75037109 61.05798828 -14.93824219 61.05347656 -16.16210938 61.04882812 C-19.10812226 61.03699675 -22.05403681 61.02051287 -25 61 C-28.0390625 55.296875 -28.0390625 55.296875 -27.6875 52.625 C-27.460625 52.08875 -27.23375 51.5525 -27 51 C-26.67 52.98 -26.34 54.96 -26 57 C-25.34 57 -24.68 57 -24 57 C-24 57.66 -24 58.32 -24 59 C-16.41 59 -8.82 59 -1 59 C-1.00523682 57.24824463 -1.01047363 55.49648926 -1.01586914 53.69165039 C-1.03196762 47.91611499 -1.04347267 42.14058037 -1.05181217 36.36502934 C-1.05703989 32.86191115 -1.0641355 29.35881715 -1.07543945 25.85571289 C-1.08834206 21.83219159 -1.09322912 17.80869586 -1.09765625 13.78515625 C-1.10539818 11.88987938 -1.10539818 11.88987938 -1.11329651 9.95631409 C-1.11340981 8.21462196 -1.11340981 8.21462196 -1.11352539 6.43774414 C-1.115746 5.40960098 -1.11796661 4.38145782 -1.12025452 3.32215881 C-1 1 -1 1 0 0 Z " fill="#00558E" transform="translate(130,259)"/>
<path d="M0 0 C1.32 0.33 2.64 0.66 4 1 C4.02886751 5.14581887 4.04675327 9.29161216 4.0625 13.4375 C4.07087891 14.62150391 4.07925781 15.80550781 4.08789062 17.02539062 C4.09111328 18.15009766 4.09433594 19.27480469 4.09765625 20.43359375 C4.10289307 21.47572021 4.10812988 22.51784668 4.11352539 23.59155273 C4 26 4 26 3 27 C1.1281906 27.09386381 -0.7471806 27.11743804 -2.62133789 27.11352539 C-3.82250748 27.11344986 -5.02367706 27.11337433 -6.26124573 27.11329651 C-7.5685112 27.10813522 -8.87577667 27.10297394 -10.22265625 27.09765625 C-11.56644132 27.09579198 -12.91022707 27.09436812 -14.25401306 27.09336853 C-17.79682277 27.08954402 -21.3395917 27.07971432 -24.88238525 27.06866455 C-28.49515227 27.05844899 -32.10792584 27.0538706 -35.72070312 27.04882812 C-42.8138188 27.03809198 -49.90690674 27.02101636 -57 27 C-57 26.34 -57 25.68 -57 25 C-37.53 25 -18.06 25 2 25 C2.68777665 12.06265314 2.68777665 12.06265314 0 0 Z " fill="#005691" transform="translate(321,99)"/>
<path d="M0 0 C0.66 0.33 1.32 0.66 2 1 C1.67 1.33 1.34 1.66 1 2 C0.67 9.59 0.34 17.18 0 25 C19.47 25 38.94 25 59 25 C59 25.66 59 26.32 59 27 C51.19424805 27.02312792 43.38850405 27.04091738 35.58272648 27.05181217 C31.9585404 27.05704002 28.3343777 27.06413587 24.71020508 27.07543945 C21.21540025 27.08627184 17.72061796 27.09227758 14.22579765 27.09487724 C12.23760611 27.09763551 10.24942369 27.10544688 8.26124573 27.11329651 C7.06007614 27.11337204 5.85890656 27.11344757 4.62133789 27.11352539 C3.02582848 27.11685631 3.02582848 27.11685631 1.39808655 27.12025452 C-1 27 -1 27 -2 26 C-2.08737645 24.14630389 -2.10698153 22.28932459 -2.09765625 20.43359375 C-2.09443359 19.30888672 -2.09121094 18.18417969 -2.08789062 17.02539062 C-2.07951172 15.84138672 -2.07113281 14.65738281 -2.0625 13.4375 C-2.05798828 12.24962891 -2.05347656 11.06175781 -2.04882812 9.83789062 C-2.03699675 6.89187774 -2.02051287 3.94596319 -2 1 C-1.34 0.67 -0.68 0.34 0 0 Z " fill="#005791" transform="translate(192,99)"/>
<path d="M0 0 C1.08828929 3.26486787 0.89901381 4.36990083 0.125 7.625 C-0.05804688 8.42164063 -0.24109375 9.21828125 -0.4296875 10.0390625 C-1 12 -1 12 -2 13 C-2.14452718 14.47507118 -2.22694925 15.9563604 -2.28125 17.4375 C-2.31863281 18.33210938 -2.35601562 19.22671875 -2.39453125 20.1484375 C-2.42933594 21.08945313 -2.46414062 22.03046875 -2.5 23 C-2.56858488 24.85433195 -2.64127813 26.70851808 -2.71875 28.5625 C-2.74904297 29.38878906 -2.77933594 30.21507812 -2.81054688 31.06640625 C-3 33 -3 33 -4 34 C-5.92667507 34.08748207 -7.85651861 34.10697334 -9.78515625 34.09765625 C-11.53989258 34.09282227 -11.53989258 34.09282227 -13.33007812 34.08789062 C-14.56177734 34.07951172 -15.79347656 34.07113281 -17.0625 34.0625 C-18.91584961 34.05573242 -18.91584961 34.05573242 -20.80664062 34.04882812 C-23.87114117 34.03699608 -26.93554721 34.02051173 -30 34 C-30.3297583 33.38511719 -30.6595166 32.77023438 -30.99926758 32.13671875 C-31.43907959 31.32847656 -31.8788916 30.52023438 -32.33203125 29.6875 C-32.76491455 28.88699219 -33.19779785 28.08648437 -33.64379883 27.26171875 C-35.76847134 23.71843051 -38.25069654 20.87465173 -42 19 C-41.505 17.515 -41.505 17.515 -41 16 C-37.45792384 17.18069205 -36.67467869 18.33152067 -34.4375 21.25 C-33.83808594 22.01828125 -33.23867187 22.7865625 -32.62109375 23.578125 C-31 26 -31 26 -29 31 C-21.41 31 -13.82 31 -6 31 C-6 26.05 -6 21.1 -6 16 C-5.34 16 -4.68 16 -4 16 C-4.061875 14.989375 -4.12375 13.97875 -4.1875 12.9375 C-3.94343497 7.81213443 -2.28178462 4.56356924 0 0 Z " fill="#0090F0" transform="translate(135,142)"/>
<path d="M0 0 C0.33 0.66 0.66 1.32 1 2 C1.66 2 2.32 2 3 2 C3 6.95 3 11.9 3 17 C10.59 17 18.18 17 26 17 C27.32 14.36 28.64 11.72 30 9 C34.1220339 3.33220339 34.1220339 3.33220339 37.3125 2.125 C37.869375 2.08375 38.42625 2.0425 39 2 C39 2.99 39 3.98 39 5 C38.2575 5.433125 37.515 5.86625 36.75 6.3125 C33.33807903 8.40617878 31.94503726 10.52671919 30 14 C29.63128912 15.65919896 29.28718326 17.3247643 29 19 C26.29903923 20.35048039 24.17273483 20.12963577 21.15234375 20.1328125 C19.99025391 20.13410156 18.82816406 20.13539063 17.63085938 20.13671875 C16.41205078 20.13285156 15.19324219 20.12898438 13.9375 20.125 C12.71482422 20.12886719 11.49214844 20.13273437 10.23242188 20.13671875 C9.07162109 20.13542969 7.91082031 20.13414062 6.71484375 20.1328125 C5.64355225 20.13168457 4.57226074 20.13055664 3.46850586 20.12939453 C1 20 1 20 0 19 C-0.08651611 17.58429877 -0.10704904 16.164405 -0.09765625 14.74609375 C-0.09443359 13.89208984 -0.09121094 13.03808594 -0.08789062 12.15820312 C-0.07951172 11.26037109 -0.07113281 10.36253906 -0.0625 9.4375 C-0.05798828 8.53580078 -0.05347656 7.63410156 -0.04882812 6.70507812 C-0.03700225 4.46998686 -0.0205222 2.23502563 0 0 Z " fill="#0077C7" transform="translate(383,156)"/>
<path d="M0 0 C1.58206057 0.00667536 3.16410534 0.0186375 4.74609375 0.03515625 C5.55240234 0.03966797 6.35871094 0.04417969 7.18945312 0.04882812 C9.18753131 0.06065107 11.18557158 0.07858711 13.18359375 0.09765625 C13.18359375 0.75765625 13.18359375 1.41765625 13.18359375 2.09765625 C7.90359375 2.09765625 2.62359375 2.09765625 -2.81640625 2.09765625 C-2.48640625 9.68765625 -2.15640625 17.27765625 -1.81640625 25.09765625 C-0.49640625 25.75765625 0.82359375 26.41765625 2.18359375 27.09765625 C2.18359375 27.75765625 2.18359375 28.41765625 2.18359375 29.09765625 C-2.56640625 28.34765625 -2.56640625 28.34765625 -4.81640625 26.09765625 C-5.05932617 23.59155273 -5.05932617 23.59155273 -5.046875 20.46875 C-5.04494141 19.35177734 -5.04300781 18.23480469 -5.04101562 17.08398438 C-5.02876953 15.91287109 -5.01652344 14.74175781 -5.00390625 13.53515625 C-5.00326172 12.36017578 -5.00261719 11.18519531 -5.00195312 9.97460938 C-4.95075073 0.12668246 -4.95075073 0.12668246 0 0 Z " fill="#0078C8" transform="translate(338.81640625,378.90234375)"/>
<path d="M0 0 C2.81256281 -0.02684312 5.62487241 -0.04676188 8.4375 -0.0625 C9.23994141 -0.07087891 10.04238281 -0.07925781 10.86914062 -0.08789062 C12.91295221 -0.0965143 14.95683902 -0.0522815 17 0 C19.60559258 2.60559258 18.28357432 9.87306463 18.3125 13.375 C18.34150391 14.53773438 18.37050781 15.70046875 18.40039062 16.8984375 C18.40876953 18.0121875 18.41714844 19.1259375 18.42578125 20.2734375 C18.44036377 21.29872559 18.45494629 22.32401367 18.4699707 23.38037109 C18 26 18 26 16.16088867 27.85791016 C14 29 14 29 11 29 C11 28.34 11 27.68 11 27 C12.32 26.34 13.64 25.68 15 25 C15.33 17.41 15.66 9.82 16 2 C10.72 2 5.44 2 0 2 C0 1.34 0 0.68 0 0 Z " fill="#0078C8" transform="translate(163,379)"/>
<path d="M0 0 C1.08828929 3.26486787 0.89901381 4.36990083 0.125 7.625 C-0.05804688 8.42164063 -0.24109375 9.21828125 -0.4296875 10.0390625 C-1 12 -1 12 -2 13 C-2.15655027 14.48638992 -2.25066943 15.97949127 -2.31640625 17.47265625 C-2.35830078 18.37177734 -2.40019531 19.27089844 -2.44335938 20.19726562 C-2.48267578 21.14279297 -2.52199219 22.08832031 -2.5625 23.0625 C-2.60568359 24.01189453 -2.64886719 24.96128906 -2.69335938 25.93945312 C-2.79979276 28.29281353 -2.90181008 30.64628354 -3 33 C-3.66 33 -4.32 33 -5 33 C-6.53266582 29.93466836 -6.10276471 26.73245728 -6.0625 23.375 C-6.05798828 22.66859375 -6.05347656 21.9621875 -6.04882812 21.234375 C-6.03703875 19.48954725 -6.01910324 17.744763 -6 16 C-5.34 16 -4.68 16 -4 16 C-4.061875 14.989375 -4.12375 13.97875 -4.1875 12.9375 C-3.94343497 7.81213443 -2.28178462 4.56356924 0 0 Z " fill="#0061A3" transform="translate(135,142)"/>
<path d="M0 0 C0.66 0 1.32 0 2 0 C2.05784708 4.12494151 2.09354407 8.24977944 2.125 12.375 C2.15013672 14.1384375 2.15013672 14.1384375 2.17578125 15.9375 C2.18222656 17.05898438 2.18867188 18.18046875 2.1953125 19.3359375 C2.20578613 20.37282715 2.21625977 21.4097168 2.22705078 22.47802734 C2 25 2 25 0 27 C-1.2375 27.433125 -2.475 27.86625 -3.75 28.3125 C-8.00391622 29.81844844 -10.70255305 31.94986157 -14 35 C-14.66 34.67 -15.32 34.34 -16 34 C-13.55118036 29.96665001 -10.25019127 27.84753212 -6 26 C-4.35 25.67 -2.7 25.34 -1 25 C-0.67 16.75 -0.34 8.5 0 0 Z " fill="#0084DB" transform="translate(324,380)"/>
<path d="M0 0 C0.66 0.33 1.32 0.66 2 1 C1.71848913 2.31471568 1.42446661 3.62675767 1.125 4.9375 C0.96257812 5.66839844 0.80015625 6.39929688 0.6328125 7.15234375 C0 9 0 9 -2 10 C-3.8863912 10.084915 -5.77578515 10.107193 -7.6640625 10.09765625 C-8.78554688 10.09443359 -9.90703125 10.09121094 -11.0625 10.08789062 C-12.238125 10.07951172 -13.41375 10.07113281 -14.625 10.0625 C-15.80835938 10.05798828 -16.99171875 10.05347656 -18.2109375 10.04882812 C-21.14067507 10.03701467 -24.07031272 10.02054258 -27 10 C-27 9.01 -27 8.02 -27 7 C-19.08 7.33 -11.16 7.66 -3 8 C-3 7.34 -3 6.68 -3 6 C-2.34 6 -1.68 6 -1 6 C-0.67 4.02 -0.34 2.04 0 0 Z " fill="#0061A2" transform="translate(412,310)"/>
<path d="M0 0 C4.12494151 -0.05784708 8.24977944 -0.09354407 12.375 -0.125 C13.550625 -0.14175781 14.72625 -0.15851563 15.9375 -0.17578125 C17.61972656 -0.18544922 17.61972656 -0.18544922 19.3359375 -0.1953125 C20.37282715 -0.20578613 21.4097168 -0.21625977 22.47802734 -0.22705078 C25 0 25 0 27 2 C27.8563027 4.63233792 28.38929927 7.29546818 29 10 C28.34 10 27.68 10 27 10 C26.67 8.02 26.34 6.04 26 4 C25.34 4 24.68 4 24 4 C24 3.34 24 2.68 24 2 C15.75 2 7.5 2 -1 2 C-0.67 1.34 -0.34 0.68 0 0 Z " fill="#006BB3" transform="translate(385,185)"/>
<path d="M0 0 C1.5631897 0.00785522 1.5631897 0.00785522 3.15795898 0.01586914 C4.28266602 0.0190918 5.40737305 0.02231445 6.56616211 0.02563477 C7.75016602 0.03401367 8.93416992 0.04239258 10.15405273 0.05102539 C11.34192383 0.05553711 12.52979492 0.06004883 13.75366211 0.06469727 C16.69967499 0.07652864 19.64558954 0.09301252 22.59155273 0.11352539 C22.92155273 0.77352539 23.25155273 1.43352539 23.59155273 2.11352539 C15.34155273 2.11352539 7.09155273 2.11352539 -1.40844727 2.11352539 C-1.40844727 2.77352539 -1.40844727 3.43352539 -1.40844727 4.11352539 C-2.06844727 4.11352539 -2.72844727 4.11352539 -3.40844727 4.11352539 C-3.73844727 6.09352539 -4.06844727 8.07352539 -4.40844727 10.11352539 C-5.06844727 9.78352539 -5.72844727 9.45352539 -6.40844727 9.11352539 C-5.93263528 7.79980552 -5.45269577 6.48757993 -4.97094727 5.17602539 C-4.70411133 4.44512695 -4.43727539 3.71422852 -4.16235352 2.96118164 C-3.06773777 0.27852233 -2.98566177 0.14073317 0 0 Z " fill="#006BB3" transform="translate(107.408447265625,184.886474609375)"/>
<path d="M0 0 C2 3 2 3 2 6 C2.66 6 3.32 6 4 6 C4 6.66 4 7.32 4 8 C11.92 7.67 19.84 7.34 28 7 C28 7.99 28 8.98 28 10 C19.75 10 11.5 10 3 10 C0 4 0 4 0 0 Z " fill="#0061A2" transform="translate(102,310)"/>
<path d="M0 0 C0.66 0 1.32 0 2 0 C2.391875 1.051875 2.78375 2.10375 3.1875 3.1875 C5.02657921 7.50495738 7.73600645 10.86800323 12 13 C12 13.99 12 14.98 12 16 C8.79424013 15.65652573 8.02483241 15.0292146 5.875 12.5 C5.25625 11.675 4.6375 10.85 4 10 C3.34 9.67 2.68 9.34 2 9 C1.1484375 7.15234375 1.1484375 7.15234375 0.375 4.9375 C0.11460937 4.20402344 -0.14578125 3.47054688 -0.4140625 2.71484375 C-0.60742188 2.14894531 -0.80078125 1.58304687 -1 1 C-0.67 0.67 -0.34 0.34 0 0 Z " fill="#007ED3" transform="translate(410,331)"/>
<path d="M0 0 C0.99 0.33 1.98 0.66 3 1 C-2.98642534 13.85972851 -2.98642534 13.85972851 -8.3125 15.875 C-8.869375 15.91625 -9.42625 15.9575 -10 16 C-10 15.01 -10 14.02 -10 13 C-9.2575 12.566875 -8.515 12.13375 -7.75 11.6875 C-3.78847609 9.25656487 -1.64649637 6.04723849 -0.25 1.625 C-0.1675 1.08875 -0.085 0.5525 0 0 Z " fill="#0083DA" transform="translate(103,331)"/>
<path d="M0 0 C0.33 0.99 0.66 1.98 1 3 C-0.11375 3.556875 -0.11375 3.556875 -1.25 4.125 C-5.10457369 6.75311842 -7.34263072 9.91833063 -8.75 14.375 C-8.8325 14.91125 -8.915 15.4475 -9 16 C-9.99 15.67 -10.98 15.34 -12 15 C-9.50565017 9.64176703 -7.08280434 5.29217892 -3 1 C-2.01 0.67 -1.02 0.34 0 0 Z " fill="#007CCF" transform="translate(421,158)"/>
<path d="M0 0 C6.55656723 2.95688326 9.09688602 6.48598805 12 13 C12.33 13.99 12.66 14.98 13 16 C12.01 16 11.02 16 10 16 C9.319375 14.39125 9.319375 14.39125 8.625 12.75 C8.3465625 12.11191406 8.068125 11.47382813 7.78125 10.81640625 C7.19533826 9.45416146 6.64978791 8.07443947 6.125 6.6875 C4.53429009 4.30143514 2.67165681 3.8436811 0 3 C0 2.01 0 1.02 0 0 Z " fill="#006FB9" transform="translate(342,407)"/>
<path d="M0 0 C2.77089743 0.3661979 3.86554742 0.86271087 5.8515625 2.890625 C6.72941406 4.05851563 6.72941406 4.05851563 7.625 5.25 C8.21539062 6.01828125 8.80578125 6.7865625 9.4140625 7.578125 C10.99224589 9.98815874 12.03101429 12.29451513 13 15 C12.01 15 11.02 15 10 15 C9.608125 14.113125 9.21625 13.22625 8.8125 12.3125 C6.63662493 8.33590074 4.11987316 5.05993658 0 3 C0 2.01 0 1.02 0 0 Z " fill="#0068AE" transform="translate(93,158)"/>
<path d="M0 0 C0.99 0.33 1.98 0.66 3 1 C0.09705556 7.53567937 -3.03486298 13.16235159 -10 16 C-8.87219868 13.2317604 -7.76636328 11.77834465 -5.5625 9.6875 C-2.56005394 6.53859315 -1.50438135 4.03807624 0 0 Z " fill="#006EB7" transform="translate(352,82)"/>
<path d="M0 0 C0 3 0 3 -2.3125 5.4375 C-3.199375 6.283125 -4.08625 7.12875 -5 8 C-7.22925675 10.62733831 -8.39231582 12.59696858 -9 16 C-9.99 15.67 -10.98 15.34 -12 15 C-9.11553475 8.50592461 -6.03548365 4.02365577 0 0 Z " fill="#006CB5" transform="translate(172,407)"/>
<path d="M0 0 C0.66 0 1.32 0 2 0 C2 0.66 2 1.32 2 2 C1.34 2 0.68 2 0 2 C-0.33 2.99 -0.66 3.98 -1 5 C-1.66 5 -2.32 5 -3 5 C-3 5.66 -3 6.32 -3 7 C-5.90600261 8.25664978 -7.79604584 9 -11 9 C-11.33 9.66 -11.66 10.32 -12 11 C-12 10.01 -12 9.02 -12 8 C-11.20335937 7.63648438 -11.20335937 7.63648438 -10.390625 7.265625 C-6.20858783 5.28144678 -3.18547331 3.43050972 0 0 Z " fill="#0068AD" transform="translate(454,339)"/>
<path d="M0 0 C0.33 0.66 0.66 1.32 1 2 C2.11375 2.1546875 2.11375 2.1546875 3.25 2.3125 C6.96781494 3.24195373 8.54880769 5.12860329 11 8 C11 8.66 11 9.32 11 10 C10.34 10 9.68 10 9 10 C7.33333333 8.33333333 5.66666667 6.66666667 4 5 C1.83379456 3.70480005 1.83379456 3.70480005 0 3 C0 2.01 0 1.02 0 0 Z " fill="#0065A9" transform="translate(90,300)"/>
<path d="M0 0 C0.66 0 1.32 0 2 0 C2 1.32 2 2.64 2 4 C1.34 4 0.68 4 0 4 C0 4.66 0 5.32 0 6 C-0.66 6 -1.32 6 -2 6 C-2 7.65 -2 9.3 -2 11 C-2.66 11 -3.32 11 -4 11 C-3.67 8.69 -3.34 6.38 -3 4 C-2.34 4 -1.68 4 -1 4 C-0.67 2.68 -0.34 1.36 0 0 Z " fill="#0064A7" transform="translate(236,31)"/>
<path d="M0 0 C-1.04874998 2.62187494 -1.64931313 3.79371361 -4.125 5.25 C-4.74375 5.4975 -5.3625 5.745 -6 6 C-6 6.66 -6 7.32 -6 8 C-6.99 8.33 -7.98 8.66 -9 9 C-7.45665977 5.21180126 -4.44676575 0 0 0 Z " fill="#0078C7" transform="translate(378,364)"/>
<path d="M0 0 C3.81684226 1.55500981 6.19195732 4.03595495 9 7 C8.67 7.66 8.34 8.32 8 9 C7.34 8.67 6.68 8.34 6 8 C6 7.34 6 6.68 6 6 C5.38125 5.7525 4.7625 5.505 4.125 5.25 C1.64931313 3.79371361 1.04874998 2.62187494 0 0 Z " fill="#0077C7" transform="translate(137,364)"/>
<path d="M0 0 C0.99 0.33 1.98 0.66 3 1 C3 1.66 3 2.32 3 3 C3.928125 3.37125 3.928125 3.37125 4.875 3.75 C7.35068687 5.20628639 7.95125002 6.37812506 9 9 C5.18063472 7.44396229 2.73955562 5.04395069 0 2 C0 1.34 0 0.68 0 0 Z " fill="#0072BE" transform="translate(369,132)"/>
<path d="M0 0 C0 3 0 3 -1.2421875 4.60546875 C-1.78101563 5.12753906 -2.31984375 5.64960938 -2.875 6.1875 C-3.40867188 6.71730469 -3.94234375 7.24710938 -4.4921875 7.79296875 C-6 9 -6 9 -8 9 C-6.95125002 6.37812506 -6.35068687 5.20628639 -3.875 3.75 C-3.25625 3.5025 -2.6375 3.255 -2 3 C-2 2.34 -2 1.68 -2 1 C-1.34 0.67 -0.68 0.34 0 0 Z " fill="#0071BC" transform="translate(145,132)"/>
<path d="M0 0 C2.97 0.495 2.97 0.495 6 1 C6 1.66 6 2.32 6 3 C6.99 3.33 7.98 3.66 9 4 C8.67 4.66 8.34 5.32 8 6 C5.36 5.01 2.72 4.02 0 3 C0 2.01 0 1.02 0 0 Z " fill="#0074C0" transform="translate(469,227)"/>
<path d="M0 0 C4.04420651 1.77945087 7.46078487 4.39529673 11 7 C10.67 7.66 10.34 8.32 10 9 C8.66144944 8.21718695 7.32926356 7.42348123 6 6.625 C5.2575 6.18414062 4.515 5.74328125 3.75 5.2890625 C2.88375 4.65097656 2.88375 4.65097656 2 4 C2 3.34 2 2.68 2 2 C1.34 2 0.68 2 0 2 C0 1.34 0 0.68 0 0 Z " fill="#005E9D" transform="translate(308,90)"/>
<path d="M0 0 C0.66 0 1.32 0 2 0 C2 0.66 2 1.32 2 2 C1.34 2 0.68 2 0 2 C-0.33 2.99 -0.66 3.98 -1 5 C-2.84765625 6.16796875 -2.84765625 6.16796875 -5.0625 7.1875 C-5.79597656 7.53167969 -6.52945313 7.87585938 -7.28515625 8.23046875 C-7.85105469 8.48441406 -8.41695312 8.73835938 -9 9 C-9 8.34 -9 7.68 -9 7 C-7.28515625 5.52734375 -7.28515625 5.52734375 -5.0625 3.9375 C-2.41985962 2.10094469 -2.41985962 2.10094469 0 0 Z " fill="#005E9D" transform="translate(205,90)"/>
<path d="M0 0 C0.33 0.66 0.66 1.32 1 2 C-1.97 4.31 -4.94 6.62 -8 9 C-8.66 8.67 -9.32 8.34 -10 8 C-7.4537541 3.80618322 -4.23328404 2.23645194 0 0 Z " fill="#005D9B" transform="translate(318,406)"/>
<path d="M0 0 C1.46555316 0.73579212 2.92224487 1.48925126 4.375 2.25 C5.18710938 2.66765625 5.99921875 3.0853125 6.8359375 3.515625 C9.20801205 5.14267975 9.97094804 6.35386639 11 9 C7.03935893 7.25731793 3.25563451 4.85325271 0 2 C0 1.34 0 0.68 0 0 Z " fill="#005892" transform="translate(196,406)"/>
<path d="M0 0 C0.99 0.33 1.98 0.66 3 1 C2.38245741 2.31602523 1.75571258 3.62773556 1.125 4.9375 C0.77695313 5.66839844 0.42890625 6.39929688 0.0703125 7.15234375 C-1 9 -1 9 -3 10 C-2.21302675 6.58978257 -1.12880057 3.31114834 0 0 Z " fill="#005791" transform="translate(103,331)"/>
<path d="M0 0 C0.99 0 1.98 0 3 0 C6.125 6.625 6.125 6.625 5 10 C2.35534962 6.8745041 1.15585285 3.91211733 0 0 Z " fill="#005FA0" transform="translate(160,82)"/>
<path d="M0 0 C0.33 0.99 0.66 1.98 1 3 C0.01 3.33 -0.98 3.66 -2 4 C-2 4.66 -2 5.32 -2 6 C-3.65 6.66 -5.3 7.32 -7 8 C-7 7.34 -7 6.68 -7 6 C-6.34 6 -5.68 6 -5 6 C-5 5.34 -5 4.68 -5 4 C-3.37373596 2.61767557 -1.7074998 1.28062485 0 0 Z " fill="#006BB1" transform="translate(349,444)"/>
<path d="M0 0 C1.1725131 0.95117134 2.33787015 1.91117009 3.5 2.875 C4.47453125 3.67550781 4.47453125 3.67550781 5.46875 4.4921875 C5.9740625 4.98976563 6.479375 5.48734375 7 6 C7 6.66 7 7.32 7 8 C4.50638429 6.79618552 2.31856917 5.54571278 0 4 C0 2.68 0 1.36 0 0 Z " fill="#0080D5" transform="translate(166,90)"/>
<path d="M0 0 C2 0 2 0 4.125 2 C4.74375 2.66 5.3625 3.32 6 4 C5.67 4.99 5.34 5.98 5 7 C4.34 6.67 3.68 6.34 3 6 C3 5.34 3 4.68 3 4 C1.68 3.34 0.36 2.68 -1 2 C-0.67 1.34 -0.34 0.68 0 0 Z " fill="#0067AC" transform="translate(165,444)"/>
<path d="M0 0 C0.66 0 1.32 0 2 0 C2.66 2.97 3.32 5.94 4 9 C3.34 9 2.68 9 2 9 C1.01 6.36 0.02 3.72 -1 1 C-0.67 0.67 -0.34 0.34 0 0 Z " fill="#00568F" transform="translate(410,331)"/>
<path d="M0 0 C1.25541557 3.76624671 0.37061958 5.37188934 -1 9 C-1.99 8.67 -2.98 8.34 -4 8 C-2.68 5.36 -1.36 2.72 0 0 Z " fill="#005086" transform="translate(413,165)"/>
<path d="M0 0 C0.66 0 1.32 0 2 0 C2 0.99 2 1.98 2 3 C-0.5 5.1875 -0.5 5.1875 -3 7 C-3.66 6.67 -4.32 6.34 -5 6 C-3.625 4 -3.625 4 -2 2 C-1.34 2 -0.68 2 0 2 C0 1.34 0 0.68 0 0 Z " fill="#0069AF" transform="translate(64,159)"/>
<path d="M0 0 C0.66 0 1.32 0 2 0 C2 0.66 2 1.32 2 2 C2.99 2.33 3.98 2.66 5 3 C6.1875 5.0625 6.1875 5.0625 7 7 C4.50638429 5.79618552 2.31856917 4.54571278 0 3 C0 2.01 0 1.02 0 0 Z " fill="#0069AF" transform="translate(449,159)"/>
<path d="M0 0 C0.33 0.99 0.66 1.98 1 3 C-0.98 4.32 -2.96 5.64 -5 7 C-5 6.01 -5 5.02 -5 4 C-4.01 3.67 -3.02 3.34 -2 3 C-2 2.34 -2 1.68 -2 1 C-1.34 0.67 -0.68 0.34 0 0 Z " fill="#0065A9" transform="translate(170,54)"/>
</svg>
