<?xml version="1.0" standalone="no"?>
<!DOCTYPE svg PUBLIC "-//W3C//DTD SVG 20010904//EN"
 "http://www.w3.org/TR/2001/REC-SVG-20010904/DTD/svg10.dtd">
<svg version="1.0" xmlns="http://www.w3.org/2000/svg"
 width="1280.000000pt" height="512.000000pt" viewBox="0 0 1280.000000 512.000000"
 preserveAspectRatio="xMidYMid meet">

<g transform="translate(0.000000,512.000000) scale(0.100000,-0.100000)"
fill="#000000" stroke="none">
<path d="M1510 4920 c-74 -4 -148 -11 -165 -15 -21 -6 -191 -168 -582 -559
l-552 -551 -13 -70 c-10 -55 -13 -303 -13 -1185 0 -1253 -4 -1187 76 -1425
158 -473 537 -805 1049 -917 l105 -23 1145 0 c1068 0 1151 1 1235 18 585 119
1003 537 1122 1122 17 84 18 167 18 1235 l0 1145 -23 105 c-113 512 -444 891
-917 1049 -232 78 -167 74 -1320 76 -566 1 -1091 -1 -1165 -5z m1415 -837 c89
-19 233 -89 307 -148 150 -120 277 -361 324 -611 22 -118 31 -486 14 -626 -32
-276 -139 -515 -304 -678 -144 -143 -315 -209 -537 -210 -183 0 -322 50 -443
161 l-56 51 0 -511 0 -511 -350 0 -350 0 2 1533 3 1532 322 3 321 2 6 -37 c3
-21 8 -68 12 -104 l6 -65 61 61 c161 160 394 216 662 158z"/>
<path d="M2442 3555 c-82 -18 -145 -56 -182 -107 l-30 -41 0 -448 0 -447 33
-44 c46 -60 123 -104 209 -118 211 -36 342 66 396 307 25 113 24 507 -1 608
-50 198 -141 289 -300 300 -35 3 -90 -2 -125 -10z"/>
<path d="M6905 2884 c-140 -31 -272 -121 -345 -234 -98 -153 -94 -378 10 -522
112 -157 307 -238 540 -225 174 10 294 58 395 161 186 189 194 454 19 654 -58
67 -134 115 -230 148 -101 34 -279 42 -389 18z m246 -252 c35 -39 49 -107 49
-232 0 -124 -14 -193 -49 -232 -51 -57 -151 -45 -186 23 -39 75 -39 343 0 418
35 68 135 80 186 23z"/>
<path d="M10641 2889 c-72 -14 -168 -65 -226 -120 -111 -105 -157 -212 -157
-369 -1 -153 46 -265 151 -363 93 -87 201 -125 381 -133 193 -10 326 31 426
130 50 51 99 135 110 191 l6 30 -119 39 c-65 22 -124 39 -131 40 -7 1 -21 -23
-31 -53 -34 -98 -82 -142 -163 -148 -74 -6 -115 18 -150 85 -65 127 -41 362
44 425 40 30 108 33 161 8 42 -20 97 -82 97 -109 0 -9 36 -12 130 -12 l130 0
0 175 0 175 -120 0 -120 0 0 -30 c0 -16 -2 -30 -4 -30 -2 0 -23 11 -47 25 -87
48 -248 68 -368 44z"/>
<path d="M5230 2766 l0 -116 50 0 50 0 0 -250 0 -250 -50 0 -50 0 0 -115 0
-115 300 0 300 0 0 115 0 115 -50 0 -50 0 0 65 0 65 83 0 c149 0 312 18 373
41 68 26 140 88 165 144 12 26 19 64 19 110 0 116 -48 193 -154 247 -95 49
-116 51 -563 55 l-423 5 0 -116z m680 -114 c48 -23 63 -79 33 -119 -24 -34
-48 -41 -140 -42 l-73 -1 0 90 0 90 73 0 c48 0 83 -6 107 -18z"/>
<path d="M7800 2765 l0 -115 40 0 40 0 0 -250 0 -250 -40 0 -40 0 0 -115 0
-115 280 0 280 0 0 115 0 115 -40 0 -40 0 0 80 0 80 64 0 63 0 111 -192 110
-193 186 -3 186 -2 0 115 0 115 -35 0 c-34 0 -38 5 -98 98 -35 53 -66 102 -70
108 -4 7 10 23 33 38 128 84 143 264 31 376 -96 96 -184 110 -698 110 l-363 0
0 -115z m652 -105 c69 -19 92 -94 43 -140 -22 -21 -38 -25 -120 -28 l-95 -4 0
91 0 91 68 0 c37 0 84 -5 104 -10z"/>
<path d="M9100 2765 l0 -115 40 0 40 0 0 -250 0 -250 -40 0 -40 0 0 -115 0
-115 490 0 490 0 0 155 0 155 -135 0 -135 0 0 -40 0 -40 -115 0 -115 0 0 80 0
80 100 0 100 0 0 100 0 100 -100 0 -100 0 0 70 0 70 115 0 115 0 0 -35 0 -35
135 0 135 0 0 150 0 150 -490 0 -490 0 0 -115z"/>
<path d="M11460 2680 l0 -200 95 0 95 0 0 85 0 85 60 0 60 0 0 -250 0 -250
-45 0 -45 0 0 -115 0 -115 290 0 290 0 0 115 0 115 -45 0 -45 0 0 250 0 250
60 0 60 0 0 -85 0 -85 95 0 95 0 0 200 0 200 -510 0 -510 0 0 -200z"/>
</g>
</svg>
